<svg width="19" height="19" viewBox="0 0 19 19" fill="none" xmlns="http://www.w3.org/2000/svg">
<path d="M9.82767 3.95833H16.6249C16.8349 3.95833 17.0362 4.04174 17.1847 4.19021C17.3332 4.33867 17.4166 4.54004 17.4166 4.75V15.8333C17.4166 16.0433 17.3332 16.2447 17.1847 16.3931C17.0362 16.5416 16.8349 16.625 16.6249 16.625H2.37492C2.16496 16.625 1.96359 16.5416 1.81513 16.3931C1.66666 16.2447 1.58325 16.0433 1.58325 15.8333V3.16667C1.58325 2.9567 1.66666 2.75534 1.81513 2.60687C1.96359 2.45841 2.16496 2.375 2.37492 2.375H8.24433L9.82767 3.95833ZM3.16659 3.95833V15.0417H15.8333V5.54167H9.17217L7.58884 3.95833H3.16659ZM8.70825 9.5V7.125H10.2916V9.5H12.6666V11.0833H10.2916V13.4583H8.70825V11.0833H6.33325V9.5H8.70825Z" fill="#3E3838"/>
</svg>
