<svg width="67" height="67" viewBox="0 0 67 67" fill="none" xmlns="http://www.w3.org/2000/svg">
<g filter="url(#filter0_d_37_1505)">
<path d="M33.538 52.4646C44.0804 52.4646 52.6268 43.9183 52.6268 33.3759C52.6268 22.8334 44.0804 14.2871 33.538 14.2871C22.9956 14.2871 14.4492 22.8334 14.4492 33.3759C14.4492 43.9183 22.9956 52.4646 33.538 52.4646Z" fill="white"/>
<path d="M33.5559 52.5402C37.2858 52.5462 40.935 51.4541 44.0484 49.4001C43.345 45.5559 40.6681 45.3369 40.6681 45.3369H25.9062C25.9062 45.3369 23.3801 45.5442 22.5912 49.0805C25.8011 51.3384 29.6314 52.5469 33.5559 52.5402V52.5402Z" fill="#6C63FF"/>
<path d="M33.353 42.187C38.4416 42.187 42.5667 38.0619 42.5667 32.9734C42.5667 27.8848 38.4416 23.7598 33.353 23.7598C28.2645 23.7598 24.1394 27.8848 24.1394 32.9734C24.1394 38.0619 28.2645 42.187 33.353 42.187Z" fill="#333333"/>
<path opacity="0.1" d="M30.3794 40.6484H36.2831V45.3715C36.2831 46.1541 35.9722 46.9048 35.4189 47.4583C34.8656 48.0119 34.115 48.323 33.3324 48.3233V48.3233C32.5495 48.3233 31.7987 48.0123 31.2451 47.4587C30.6915 46.9051 30.3805 46.1543 30.3805 45.3715V40.6484H30.3794Z" fill="black"/>
<path d="M30.5666 40.4287H36.0981C36.1478 40.4287 36.1954 40.4484 36.2305 40.4835C36.2656 40.5186 36.2853 40.5662 36.2853 40.6159V45.1517C36.2854 45.5395 36.2091 45.9235 36.0607 46.2818C35.9123 46.64 35.6948 46.9656 35.4205 47.2397C35.1463 47.5139 34.8208 47.7314 34.4625 47.8797C34.1042 48.028 33.7202 48.1043 33.3324 48.1041V48.1041C32.5495 48.1041 31.7987 47.7931 31.2451 47.2395C30.6915 46.686 30.3806 45.9352 30.3806 45.1523V40.6159C30.3806 40.5664 30.4001 40.519 30.435 40.4839C30.4698 40.4489 30.5172 40.429 30.5666 40.4287V40.4287Z" fill="#FDB797"/>
<path opacity="0.1" d="M30.39 42.8772C32.2927 43.588 34.3871 43.5938 36.2937 42.8934V42.167H30.39V42.8772Z" fill="black"/>
<path d="M33.353 43.2719C38.0265 43.2719 41.8151 39.4833 41.8151 34.8098C41.8151 30.1363 38.0265 26.3477 33.353 26.3477C28.6795 26.3477 24.8909 30.1363 24.8909 34.8098C24.8909 39.4833 28.6795 43.2719 33.353 43.2719Z" fill="#FDB797"/>
<path opacity="0.1" d="M27.3254 27.113C27.3254 27.113 30.8918 34.3521 40.9519 30.1481L38.6097 26.4755L34.4577 24.9854L27.3254 27.113Z" fill="black"/>
<path d="M27.3254 27.0067C27.3254 27.0067 30.8918 34.2458 40.9519 30.0407L38.6097 26.3681L34.4577 24.8779L27.3254 27.0067Z" fill="#333333"/>
<path d="M27.2941 26.5161C27.5345 25.7717 27.9501 25.0959 28.506 24.5455C30.1705 22.9 32.8993 22.553 34.299 20.6768C34.6342 21.1975 34.375 21.9982 33.7961 22.2217C35.1371 22.2127 36.6909 22.0954 37.4492 20.9924C37.6365 21.4287 37.6963 21.9091 37.6214 22.3779C37.5465 22.8468 37.3401 23.2847 37.0262 23.6409C38.2146 23.6967 39.4846 24.5013 39.5595 25.6886C39.6109 26.4798 39.1125 27.2285 38.4649 27.6822C37.8174 28.1359 37.0284 28.3443 36.2546 28.5148C33.995 29.0137 25.8196 31.1017 27.2941 26.5161Z" fill="#333333"/>
<path d="M24.8876 36.2785C25.3224 36.2785 25.6749 35.6176 25.6749 34.8024C25.6749 33.9871 25.3224 33.3262 24.8876 33.3262C24.4528 33.3262 24.1003 33.9871 24.1003 34.8024C24.1003 35.6176 24.4528 36.2785 24.8876 36.2785Z" fill="#FDB797"/>
<path d="M41.814 36.2785C42.2488 36.2785 42.6013 35.6176 42.6013 34.8024C42.6013 33.9871 42.2488 33.3262 41.814 33.3262C41.3792 33.3262 41.0268 33.9871 41.0268 34.8024C41.0268 35.6176 41.3792 36.2785 41.814 36.2785Z" fill="#FDB797"/>
</g>
<defs>
<filter id="filter0_d_37_1505" x="0.449219" y="0.287109" width="66.1775" height="66.2529" filterUnits="userSpaceOnUse" color-interpolation-filters="sRGB">
<feFlood flood-opacity="0" result="BackgroundImageFix"/>
<feColorMatrix in="SourceAlpha" type="matrix" values="0 0 0 0 0 0 0 0 0 0 0 0 0 0 0 0 0 0 127 0" result="hardAlpha"/>
<feOffset/>
<feGaussianBlur stdDeviation="7"/>
<feComposite in2="hardAlpha" operator="out"/>
<feColorMatrix type="matrix" values="0 0 0 0 0.192157 0 0 0 0 0.423529 0 0 0 0 0.776471 0 0 0 0.26 0"/>
<feBlend mode="normal" in2="BackgroundImageFix" result="effect1_dropShadow_37_1505"/>
<feBlend mode="normal" in="SourceGraphic" in2="effect1_dropShadow_37_1505" result="shape"/>
</filter>
</defs>
</svg>
