<svg width="72" height="79" viewBox="0 0 72 79" fill="none" xmlns="http://www.w3.org/2000/svg">
<g filter="url(#filter0_d_37_1448)">
<path d="M52.9773 31.5H19.0227C18.7516 31.4997 18.4916 31.3918 18.2999 31.2001C18.1082 31.0084 18.0003 30.7484 18 30.4773V19.0227C18.0003 18.7516 18.1082 18.4916 18.2999 18.2999C18.4916 18.1082 18.7516 18.0003 19.0227 18H52.9773C53.2484 18.0003 53.5084 18.1082 53.7001 18.2999C53.8918 18.4916 53.9997 18.7516 54 19.0227V30.4773C53.9997 30.7484 53.8918 31.0084 53.7001 31.2001C53.5084 31.3918 53.2484 31.4997 52.9773 31.5V31.5Z" fill="white"/>
<path d="M32.3182 21.0684H23.3182V22.0911H32.3182V21.0684Z" fill="#D9D9D9"/>
<path d="M44.1818 22.2956C44.5207 22.2956 44.7954 22.0209 44.7954 21.682C44.7954 21.3431 44.5207 21.0684 44.1818 21.0684C43.8429 21.0684 43.5682 21.3431 43.5682 21.682C43.5682 22.0209 43.8429 22.2956 44.1818 22.2956Z" fill="#6C63FF"/>
<path d="M46.2273 22.2956C46.5662 22.2956 46.8409 22.0209 46.8409 21.682C46.8409 21.3431 46.5662 21.0684 46.2273 21.0684C45.8884 21.0684 45.6136 21.3431 45.6136 21.682C45.6136 22.0209 45.8884 22.2956 46.2273 22.2956Z" fill="#6C63FF"/>
<path d="M48.2727 22.2956C48.6116 22.2956 48.8864 22.0209 48.8864 21.682C48.8864 21.3431 48.6116 21.0684 48.2727 21.0684C47.9338 21.0684 47.6591 21.3431 47.6591 21.682C47.6591 22.0209 47.9338 22.2956 48.2727 22.2956Z" fill="#6C63FF"/>
<path d="M52.9773 46.0225H19.0227C18.7516 46.0221 18.4916 45.9143 18.2999 45.7226C18.1082 45.5308 18.0003 45.2709 18 44.9997V33.5452C18.0003 33.274 18.1082 33.0141 18.2999 32.8224C18.4916 32.6306 18.7516 32.5228 19.0227 32.5225H52.9773C53.2484 32.5228 53.5084 32.6306 53.7001 32.8224C53.8918 33.0141 53.9997 33.274 54 33.5452V44.9997C53.9997 45.2709 53.8918 45.5308 53.7001 45.7226C53.5084 45.9143 53.2484 46.0222 52.9773 46.0225V46.0225Z" fill="white"/>
<path d="M32.3182 35.5908H23.3182V36.6135H32.3182V35.5908Z" fill="#D9D9D9"/>
<path d="M44.1818 36.8181C44.5207 36.8181 44.7954 36.5434 44.7954 36.2045C44.7954 35.8656 44.5207 35.5908 44.1818 35.5908C43.8429 35.5908 43.5682 35.8656 43.5682 36.2045C43.5682 36.5434 43.8429 36.8181 44.1818 36.8181Z" fill="#6C63FF"/>
<path d="M46.2273 36.8181C46.5662 36.8181 46.8409 36.5434 46.8409 36.2045C46.8409 35.8656 46.5662 35.5908 46.2273 35.5908C45.8884 35.5908 45.6136 35.8656 45.6136 36.2045C45.6136 36.5434 45.8884 36.8181 46.2273 36.8181Z" fill="#6C63FF"/>
<path d="M48.2727 36.8181C48.6116 36.8181 48.8864 36.5434 48.8864 36.2045C48.8864 35.8656 48.6116 35.5908 48.2727 35.5908C47.9338 35.5908 47.6591 35.8656 47.6591 36.2045C47.6591 36.5434 47.9338 36.8181 48.2727 36.8181Z" fill="#6C63FF"/>
<path d="M52.9773 60.5459H19.0227C18.7516 60.5456 18.4916 60.4377 18.2999 60.246C18.1082 60.0543 18.0003 59.7943 18 59.5232V48.0686C18.0003 47.7975 18.1082 47.5375 18.2999 47.3458C18.4916 47.1541 18.7516 47.0462 19.0227 47.0459H52.9773C53.2484 47.0462 53.5084 47.1541 53.7001 47.3458C53.8918 47.5375 53.9997 47.7975 54 48.0686V59.5232C53.9997 59.7943 53.8918 60.0543 53.7001 60.246C53.5084 60.4377 53.2484 60.5456 52.9773 60.5459V60.5459Z" fill="white"/>
<path d="M32.3182 50.1133H23.3182V51.136H32.3182V50.1133Z" fill="#D9D9D9"/>
<path d="M44.1818 51.3406C44.5207 51.3406 44.7954 51.0658 44.7954 50.7269C44.7954 50.388 44.5207 50.1133 44.1818 50.1133C43.8429 50.1133 43.5682 50.388 43.5682 50.7269C43.5682 51.0658 43.8429 51.3406 44.1818 51.3406Z" fill="#6C63FF"/>
<path d="M46.2273 51.3406C46.5662 51.3406 46.8409 51.0658 46.8409 50.7269C46.8409 50.388 46.5662 50.1133 46.2273 50.1133C45.8884 50.1133 45.6136 50.388 45.6136 50.7269C45.6136 51.0658 45.8884 51.3406 46.2273 51.3406Z" fill="#6C63FF"/>
<path d="M48.2727 51.3406C48.6116 51.3406 48.8864 51.0658 48.8864 50.7269C48.8864 50.388 48.6116 50.1133 48.2727 50.1133C47.9338 50.1133 47.6591 50.388 47.6591 50.7269C47.6591 51.0658 47.9338 51.3406 48.2727 51.3406Z" fill="#6C63FF"/>
</g>
<defs>
<filter id="filter0_d_37_1448" x="0" y="0" width="72" height="78.5459" filterUnits="userSpaceOnUse" color-interpolation-filters="sRGB">
<feFlood flood-opacity="0" result="BackgroundImageFix"/>
<feColorMatrix in="SourceAlpha" type="matrix" values="0 0 0 0 0 0 0 0 0 0 0 0 0 0 0 0 0 0 127 0" result="hardAlpha"/>
<feOffset/>
<feGaussianBlur stdDeviation="9"/>
<feComposite in2="hardAlpha" operator="out"/>
<feColorMatrix type="matrix" values="0 0 0 0 0.192157 0 0 0 0 0.423529 0 0 0 0 0.776471 0 0 0 0.23 0"/>
<feBlend mode="normal" in2="BackgroundImageFix" result="effect1_dropShadow_37_1448"/>
<feBlend mode="normal" in="SourceGraphic" in2="effect1_dropShadow_37_1448" result="shape"/>
</filter>
</defs>
</svg>
