<svg width="13" height="11" viewBox="0 0 13 11" fill="none" xmlns="http://www.w3.org/2000/svg">
<g clip-path="url(#clip0_1_2953)">
<path d="M0.26222 2.19417H0.738294V1.15104C0.738294 1.0061 0.855725 0.888672 1.00066 0.888672H1.46722V0.26237C1.46722 0.117432 1.58465 0 1.72959 0H5.98886C6.1338 0 6.25123 0.117432 6.25123 0.26237V0.888672H11.9959C12.1408 0.888672 12.2582 1.0061 12.2582 1.15104V2.19417H12.7375C12.8824 2.19417 12.9998 2.3116 12.9998 2.45654C12.9998 2.47559 12.9977 2.49463 12.9935 2.51156L12.0752 9.26229C12.0456 9.48234 11.9493 9.68652 11.8012 9.83464C11.6552 9.98063 11.4616 10.0716 11.2341 10.0716H1.55503C1.32651 10.0716 1.12867 9.97957 0.980563 9.83252C0.831393 9.68335 0.736178 9.47811 0.711845 9.25488L0.000907717 2.48405C-0.0139035 2.34017 0.0908329 2.2111 0.234713 2.19629C0.244235 2.19523 0.252698 2.19523 0.26222 2.19417ZM1.00066 2.71997H0.553154L1.23341 9.20199C1.24399 9.30567 1.28631 9.39771 1.34978 9.46224C1.40268 9.51514 1.47356 9.54793 1.55397 9.54793H11.2341C11.3135 9.54793 11.3801 9.51619 11.432 9.46436C11.4976 9.39876 11.5409 9.30249 11.5558 9.19458L12.436 2.72103H1.00066V2.71997ZM1.26303 1.41447V2.19312L11.7335 2.08203V1.41447H5.98886C5.84392 1.41447 5.72649 1.29704 5.72649 1.1521V0.525798H1.99196V1.1521C1.99196 1.29704 1.87452 1.41447 1.72959 1.41447H1.26303Z" fill="white"/>
</g>
<defs>
<clipPath id="clip0_1_2953">
<rect width="13" height="10.0727" fill="white"/>
</clipPath>
</defs>
</svg>
