<svg width="15" height="17" viewBox="0 0 15 17" fill="none" xmlns="http://www.w3.org/2000/svg">
<g clip-path="url(#clip0_34_629)">
<path d="M4.59179 2.92388H13.3318C14.2497 2.92388 15 3.6742 15 4.59211V14.692C15 15.6058 14.2458 16.3602 13.3318 16.3602H4.59179C3.6742 16.3602 2.92388 15.6096 2.92388 14.692V4.59211C2.92388 3.67356 3.67356 2.92388 4.59179 2.92388ZM8.50714 8.35938C8.19211 8.79595 7.52878 8.31908 7.8419 7.88156L8.42814 7.06695C8.57499 6.86239 8.76086 6.68891 8.97505 6.5565C9.19042 6.42378 9.42967 6.33447 9.67932 6.2936C10.2038 6.20821 10.713 6.34254 11.1118 6.6291C11.5107 6.91631 11.7998 7.35576 11.8855 7.88028C11.9262 8.12995 11.9176 8.38518 11.8602 8.63156C11.8031 8.87678 11.6979 9.10823 11.5506 9.31247L10.9647 10.1271C10.6503 10.5643 9.98571 10.0861 10.3004 9.64893L10.8857 8.83465C10.9724 8.71439 11.0312 8.58134 11.0632 8.44446C11.0965 8.30213 11.1006 8.15469 11.0776 8.01237C11.028 7.70949 10.8624 7.45682 10.6343 7.29275C10.406 7.12836 10.1136 7.05192 9.81141 7.10149C9.66908 7.12484 9.53092 7.17569 9.40618 7.25245C9.28343 7.32824 9.1769 7.42759 9.09275 7.54478L8.50714 8.35938ZM9.18262 8.56823C9.49925 8.13294 10.1584 8.60885 9.84499 9.04638L8.75629 10.6913C8.44158 11.1256 7.78113 10.65 8.0936 10.2134L9.18262 8.56823ZM9.40618 10.9398C9.72122 10.5026 10.3852 10.9807 10.0708 11.4179L9.49606 12.2168C9.34446 12.4273 9.15736 12.5987 8.94883 12.7273C8.73355 12.8602 8.49427 12.9495 8.24456 12.9902C7.72004 13.0756 7.21119 12.9413 6.81237 12.6547C6.41354 12.3678 6.12441 11.928 6.0387 11.4035C5.99791 11.1542 6.00639 10.8993 6.06365 10.6532C6.12122 10.4083 6.22654 10.1771 6.37356 9.97292L6.94957 9.17047C7.26525 8.73582 7.92633 9.21365 7.61322 9.64989L7.03817 10.4491C6.95357 10.566 6.89311 10.6985 6.86034 10.839C6.82768 10.9807 6.82301 11.1273 6.84659 11.2708L6.84691 11.273C6.89616 11.5746 7.06151 11.827 7.28955 11.9907C7.51759 12.1548 7.80896 12.2316 8.11119 12.1826L8.11343 12.182C8.25544 12.1586 8.3936 12.1078 8.51738 12.0313C8.63699 11.9578 8.74446 11.8596 8.83113 11.739L9.40618 10.9398ZM1.16994 11.2203C1.16994 11.5433 0.907996 11.8052 0.584968 11.8052C0.26194 11.8052 0 11.5433 0 11.2203V1.66823C0 0.74968 0.74968 0 1.66823 0H10.4079C10.7309 0 10.9929 0.26194 10.9929 0.584968C10.9929 0.907996 10.7309 1.16994 10.4079 1.16994H1.66823C1.3951 1.16994 1.16994 1.3951 1.16994 1.66823V11.2203ZM13.3318 4.09382H4.59179C4.31898 4.09382 4.09382 4.31898 4.09382 4.59211V14.692C4.09382 14.9645 4.31962 15.1903 4.59179 15.1903H13.3318C13.6065 15.1903 13.8301 14.9667 13.8301 14.692V4.59211C13.8301 4.31962 13.6043 4.09382 13.3318 4.09382Z" fill="#27C09C"/>
</g>
<defs>
<clipPath id="clip0_34_629">
<rect width="15" height="16.3602" fill="white"/>
</clipPath>
</defs>
</svg>
