<svg width="70" height="67" viewBox="0 0 70 67" fill="none" xmlns="http://www.w3.org/2000/svg">
<g filter="url(#filter0_d_36_1375)">
<path d="M37.5582 14.09L36.0615 14.476L17.6211 19.2314L16.1243 19.6173C15.3978 19.8056 14.7756 20.2743 14.3943 20.9207C14.0129 21.5671 13.9036 22.3383 14.0902 23.0653L20.5804 48.2331C20.7687 48.9596 21.2374 49.5818 21.8838 49.9631C22.5301 50.3445 23.3014 50.4539 24.0283 50.2673L24.0322 50.2663L45.4584 44.7409L45.4622 44.7399C46.1887 44.5517 46.8109 44.0829 47.1923 43.4366C47.5736 42.7902 47.683 42.0189 47.4964 41.292L41.0061 16.1242C40.8179 15.3976 40.3492 14.7755 39.7028 14.3941C39.0564 14.0128 38.2852 13.9034 37.5582 14.09Z" fill="#F2F2F2"/>
<path d="M37.7616 14.8788L35.9888 15.336L18.1005 19.949L16.3277 20.4062C15.8103 20.5402 15.3673 20.874 15.0957 21.3343C14.8241 21.7946 14.7462 22.3438 14.8791 22.8615L21.3694 48.0293C21.5034 48.5467 21.8372 48.9898 22.2975 49.2613C22.7578 49.5329 23.3071 49.6108 23.8247 49.4779L23.8286 49.4769L45.2547 43.9516L45.2586 43.9505C45.776 43.8165 46.2191 43.4827 46.4906 43.0224C46.7622 42.5621 46.8401 42.0129 46.7072 41.4952L40.2169 16.3274C40.0829 15.81 39.7491 15.367 39.2888 15.0954C38.8285 14.8238 38.2793 14.7459 37.7616 14.8788V14.8788Z" fill="white"/>
<path d="M36.4229 23.0293L25.584 25.8245C25.4629 25.8557 25.3344 25.8375 25.2267 25.774C25.1191 25.7105 25.041 25.6068 25.0098 25.4857C24.9786 25.3647 24.9967 25.2362 25.0603 25.1285C25.1238 25.0208 25.2275 24.9428 25.3486 24.9115L36.1875 22.1164C36.3085 22.0853 36.437 22.1035 36.5445 22.1671C36.6521 22.2306 36.7301 22.3343 36.7613 22.4552C36.7925 22.5762 36.7744 22.7047 36.7109 22.8123C36.6475 22.9199 36.5439 22.998 36.4229 23.0293V23.0293Z" fill="#F2F2F2"/>
<path d="M38.7032 24.0841L25.9813 27.3648C25.8603 27.396 25.7318 27.3779 25.6241 27.3144C25.5164 27.2508 25.4384 27.1471 25.4071 27.0261C25.3759 26.905 25.3941 26.7765 25.4576 26.6688C25.5211 26.5611 25.6248 26.4831 25.7459 26.4519L38.4678 23.1712C38.5888 23.14 38.7173 23.1581 38.825 23.2216C38.9327 23.2852 39.0107 23.3889 39.0419 23.5099C39.0731 23.631 39.055 23.7595 38.9915 23.8672C38.9279 23.9748 38.8242 24.0529 38.7032 24.0841V24.0841Z" fill="#F2F2F2"/>
<path d="M38.2034 29.9327L27.3644 32.7279C27.3045 32.7433 27.2421 32.7468 27.1808 32.7382C27.1195 32.7295 27.0605 32.7089 27.0072 32.6774C26.9539 32.646 26.9073 32.6043 26.8701 32.5549C26.8328 32.5054 26.8057 32.4491 26.7903 32.3891C26.7748 32.3292 26.7713 32.2668 26.78 32.2055C26.7886 32.1442 26.8093 32.0852 26.8407 32.0319C26.8722 31.9786 26.9138 31.932 26.9633 31.8948C27.0128 31.8575 27.0691 31.8304 27.129 31.815L37.968 29.0198C38.0279 29.0044 38.0903 29.0009 38.1516 29.0095C38.2129 29.0182 38.2719 29.0388 38.3252 29.0703C38.3785 29.1017 38.4251 29.1434 38.4624 29.1928C38.4996 29.2423 38.5267 29.2986 38.5422 29.3586C38.5576 29.4185 38.5611 29.4809 38.5525 29.5422C38.5438 29.6035 38.5231 29.6625 38.4917 29.7158C38.4602 29.7691 38.4186 29.8157 38.3691 29.8529C38.3197 29.8902 38.2633 29.9173 38.2034 29.9327V29.9327Z" fill="#F2F2F2"/>
<path d="M40.4835 30.9884L27.7616 34.2691C27.7017 34.2846 27.6393 34.2881 27.578 34.2794C27.5167 34.2708 27.4577 34.2501 27.4044 34.2187C27.3511 34.1872 27.3045 34.1455 27.2673 34.0961C27.2301 34.0466 27.2029 33.9903 27.1875 33.9304C27.172 33.8704 27.1685 33.808 27.1772 33.7467C27.1858 33.6854 27.2065 33.6264 27.2379 33.5731C27.2694 33.5198 27.311 33.4732 27.3605 33.436C27.41 33.3988 27.4663 33.3717 27.5262 33.3562L40.2481 30.0755C40.3692 30.0443 40.4977 30.0624 40.6053 30.1259C40.713 30.1895 40.791 30.2932 40.8223 30.4142C40.8535 30.5353 40.8353 30.6638 40.7718 30.7715C40.7083 30.8791 40.6046 30.9572 40.4835 30.9884Z" fill="#F2F2F2"/>
<path d="M39.9838 36.837L29.1448 39.6322C29.0238 39.6633 28.8954 39.6451 28.7878 39.5816C28.6801 39.518 28.6022 39.4144 28.571 39.2934C28.5398 39.1724 28.5579 39.0439 28.6213 38.9363C28.6848 38.8286 28.7884 38.7506 28.9094 38.7193L39.7484 35.9241C39.8694 35.8929 39.9979 35.911 40.1056 35.9746C40.2133 36.0381 40.2913 36.1418 40.3225 36.2629C40.3538 36.3839 40.3356 36.5124 40.2721 36.6201C40.2086 36.7278 40.1049 36.8058 39.9838 36.837Z" fill="#F2F2F2"/>
<path d="M42.2639 37.8917L29.542 41.1724C29.4821 41.188 29.4196 41.1915 29.3583 41.1829C29.297 41.1743 29.2379 41.1536 29.1846 41.1222C29.1312 41.0907 29.0846 41.0491 29.0473 40.9996C29.0101 40.9501 28.9829 40.8938 28.9674 40.8338C28.952 40.7738 28.9485 40.7114 28.9572 40.65C28.9658 40.5887 28.9865 40.5297 29.018 40.4764C29.0495 40.423 29.0912 40.3764 29.1407 40.3392C29.1902 40.302 29.2466 40.2749 29.3066 40.2595L42.0285 36.9788C42.1495 36.9476 42.278 36.9657 42.3857 37.0293C42.4934 37.0928 42.5714 37.1965 42.6026 37.3175C42.6339 37.4386 42.6157 37.5671 42.5522 37.6748C42.4887 37.7825 42.385 37.8605 42.2639 37.8917V37.8917Z" fill="#F2F2F2"/>
<path d="M23.7336 28.6903L19.8978 29.6795C19.8397 29.6944 19.7782 29.6857 19.7265 29.6552C19.6749 29.6248 19.6375 29.5751 19.6225 29.5171L18.742 26.1027C18.7271 26.0446 18.7358 25.983 18.7663 25.9314C18.7967 25.8798 18.8464 25.8424 18.9044 25.8273L22.7402 24.8382C22.7983 24.8233 22.8598 24.832 22.9115 24.8624C22.9631 24.8929 23.0005 24.9426 23.0155 25.0006L23.896 28.415C23.9109 28.473 23.9022 28.5346 23.8717 28.5862C23.8413 28.6379 23.7916 28.6753 23.7336 28.6903V28.6903Z" fill="#E6E6E6"/>
<path d="M25.514 35.5936L21.6782 36.5828C21.6201 36.5977 21.5586 36.589 21.5069 36.5585C21.4553 36.5281 21.4179 36.4784 21.4029 36.4204L20.5224 33.006C20.5075 32.9479 20.5162 32.8863 20.5467 32.8347C20.5771 32.7831 20.6268 32.7457 20.6848 32.7307L24.5206 31.7415C24.5786 31.7266 24.6402 31.7353 24.6918 31.7658C24.7435 31.7962 24.7809 31.8459 24.7959 31.9039L25.6764 35.3183C25.6913 35.3764 25.6826 35.4379 25.6521 35.4896C25.6217 35.5412 25.572 35.5786 25.514 35.5936V35.5936Z" fill="#E6E6E6"/>
<path d="M27.2944 42.4979L23.4586 43.4871C23.4005 43.502 23.339 43.4933 23.2873 43.4628C23.2357 43.4324 23.1983 43.3827 23.1833 43.3247L22.3028 39.9103C22.2879 39.8522 22.2966 39.7906 22.327 39.739C22.3575 39.6874 22.4072 39.65 22.4652 39.635L26.301 38.6458C26.359 38.6309 26.4206 38.6396 26.4722 38.6701C26.5239 38.7005 26.5613 38.7502 26.5763 38.8082L27.4568 42.2226C27.4717 42.2807 27.463 42.3422 27.4325 42.3939C27.4021 42.4455 27.3524 42.4829 27.2944 42.4979V42.4979Z" fill="#E6E6E6"/>
<path d="M52.5072 20.4688H30.372C29.6215 20.4696 28.902 20.7681 28.3713 21.2988C27.8407 21.8295 27.5422 22.549 27.5413 23.2995V49.2907C27.5422 50.0412 27.8407 50.7607 28.3713 51.2914C28.902 51.8221 29.6215 52.1206 30.372 52.1214H52.5072C53.2577 52.1206 53.9772 51.8221 54.5078 51.2914C55.0385 50.7607 55.337 50.0412 55.3379 49.2907V23.2995C55.337 22.549 55.0385 21.8295 54.5078 21.2988C53.9772 20.7681 53.2577 20.4696 52.5072 20.4688V20.4688Z" fill="#E6E6E6"/>
<path d="M52.5072 21.2842H30.372C29.8376 21.2848 29.3252 21.4974 28.9473 21.8753C28.5694 22.2532 28.3568 22.7656 28.3562 23.3V49.2912C28.3568 49.8257 28.5694 50.338 28.9473 50.716C29.3252 51.0939 29.8376 51.3064 30.372 51.307H52.5072C53.0416 51.3064 53.554 51.0939 53.9319 50.716C54.3098 50.338 54.5224 49.8257 54.523 49.2912V23.3C54.5224 22.7656 54.3098 22.2532 53.9319 21.8753C53.554 21.4974 53.0416 21.2848 52.5072 21.2842V21.2842Z" fill="white"/>
<path d="M49.1758 35.5668H37.9822C37.9203 35.5669 37.8589 35.5547 37.8017 35.5311C37.7444 35.5074 37.6924 35.4727 37.6486 35.4289C37.6047 35.3851 37.57 35.3332 37.5462 35.2759C37.5225 35.2187 37.5103 35.1574 37.5103 35.0954C37.5103 35.0335 37.5225 34.9721 37.5462 34.9149C37.57 34.8577 37.6047 34.8057 37.6486 34.7619C37.6924 34.7181 37.7444 34.6834 37.8017 34.6598C37.8589 34.6361 37.9203 34.624 37.9822 34.624H49.1758C49.3007 34.6242 49.4205 34.6739 49.5088 34.7623C49.5971 34.8507 49.6467 34.9705 49.6467 35.0954C49.6467 35.2203 49.5971 35.3402 49.5088 35.4286C49.4205 35.5169 49.3007 35.5667 49.1758 35.5668V35.5668Z" fill="#E6E6E6"/>
<path d="M51.1203 37.1576H37.9822C37.9203 37.1577 37.8589 37.1456 37.8017 37.1219C37.7444 37.0982 37.6924 37.0635 37.6486 37.0197C37.6047 36.976 37.57 36.924 37.5462 36.8668C37.5225 36.8095 37.5103 36.7482 37.5103 36.6862C37.5103 36.6243 37.5225 36.5629 37.5462 36.5057C37.57 36.4485 37.6047 36.3965 37.6486 36.3527C37.6924 36.3089 37.7444 36.2742 37.8017 36.2506C37.8589 36.2269 37.9203 36.2148 37.9822 36.2148H51.1203C51.2453 36.2148 51.3652 36.2645 51.4536 36.3529C51.542 36.4413 51.5917 36.5612 51.5917 36.6862C51.5917 36.8113 51.542 36.9312 51.4536 37.0196C51.3652 37.108 51.2453 37.1576 51.1203 37.1576Z" fill="#E6E6E6"/>
<path d="M49.1758 42.6967H37.9822C37.9203 42.6968 37.8589 42.6846 37.8017 42.661C37.7444 42.6373 37.6924 42.6026 37.6486 42.5588C37.6047 42.515 37.57 42.463 37.5462 42.4058C37.5225 42.3486 37.5103 42.2872 37.5103 42.2253C37.5103 42.1633 37.5225 42.102 37.5462 42.0448C37.57 41.9876 37.6047 41.9356 37.6486 41.8918C37.6924 41.848 37.7444 41.8133 37.8017 41.7896C37.8589 41.766 37.9203 41.7538 37.9822 41.7539H49.1758C49.3008 41.7539 49.4207 41.8036 49.5091 41.892C49.5975 41.9804 49.6472 42.1003 49.6472 42.2253C49.6472 42.3503 49.5975 42.4702 49.5091 42.5586C49.4207 42.647 49.3008 42.6967 49.1758 42.6967V42.6967Z" fill="#E6E6E6"/>
<path d="M51.1203 44.2875H37.9822C37.9203 44.2876 37.8589 44.2754 37.8017 44.2518C37.7444 44.2281 37.6924 44.1934 37.6486 44.1496C37.6047 44.1059 37.57 44.0539 37.5462 43.9966C37.5225 43.9394 37.5103 43.8781 37.5103 43.8161C37.5103 43.7542 37.5225 43.6928 37.5462 43.6356C37.57 43.5784 37.6047 43.5264 37.6486 43.4826C37.6924 43.4388 37.7444 43.4041 37.8017 43.3805C37.8589 43.3568 37.9203 43.3447 37.9822 43.3447H51.1203C51.1823 43.3447 51.2436 43.3568 51.3009 43.3805C51.3581 43.4041 51.4101 43.4388 51.454 43.4826C51.4978 43.5264 51.5326 43.5784 51.5563 43.6356C51.58 43.6928 51.5922 43.7542 51.5922 43.8161C51.5922 43.8781 51.58 43.9394 51.5563 43.9966C51.5326 44.0539 51.4978 44.1059 51.454 44.1496C51.4101 44.1934 51.3581 44.2281 51.3009 44.2518C51.2436 44.2754 51.1823 44.2876 51.1203 44.2875Z" fill="#E6E6E6"/>
<path d="M35.4748 37.8795H31.5135C31.4536 37.8795 31.3961 37.8556 31.3538 37.8133C31.3114 37.7709 31.2875 37.7134 31.2875 37.6535V34.1274C31.2875 34.0675 31.3114 34.01 31.3538 33.9676C31.3961 33.9253 31.4536 33.9014 31.5135 33.9014H35.4748C35.5347 33.9014 35.5922 33.9253 35.6346 33.9676C35.6769 34.01 35.7008 34.0675 35.7008 34.1274V37.6535C35.7008 37.7134 35.6769 37.7709 35.6346 37.8133C35.5922 37.8556 35.5347 37.8795 35.4748 37.8795V37.8795Z" fill="#E6E6E6"/>
<path d="M35.4748 45.0094H31.5135C31.4536 45.0094 31.3961 44.9855 31.3538 44.9432C31.3114 44.9008 31.2875 44.8433 31.2875 44.7834V41.2573C31.2875 41.1974 31.3114 41.1399 31.3538 41.0975C31.3961 41.0552 31.4536 41.0313 31.5135 41.0312H35.4748C35.5347 41.0313 35.5922 41.0552 35.6346 41.0975C35.6769 41.1399 35.7008 41.1974 35.7008 41.2573V44.7834C35.7008 44.8433 35.6769 44.9008 35.6346 44.9432C35.5922 44.9855 35.5347 45.0094 35.4748 45.0094V45.0094Z" fill="#E6E6E6"/>
<path d="M49.1883 27.6303H40.9357C40.8107 27.6303 40.6908 27.5806 40.6024 27.4922C40.514 27.4038 40.4643 27.2839 40.4643 27.1589C40.4643 27.0339 40.514 26.914 40.6024 26.8256C40.6908 26.7372 40.8107 26.6875 40.9357 26.6875H49.1883C49.3133 26.6875 49.4332 26.7372 49.5216 26.8256C49.61 26.914 49.6596 27.0339 49.6596 27.1589C49.6596 27.2839 49.61 27.4038 49.5216 27.4922C49.4332 27.5806 49.3133 27.6303 49.1883 27.6303Z" fill="#CCCCCC"/>
<path d="M51.1327 29.2201H40.9357C40.8738 29.2201 40.8125 29.2079 40.7553 29.1842C40.6981 29.1606 40.6461 29.1258 40.6024 29.0821C40.5586 29.0383 40.5239 28.9863 40.5002 28.9291C40.4765 28.8719 40.4643 28.8106 40.4643 28.7487C40.4643 28.6868 40.4765 28.6255 40.5002 28.5683C40.5239 28.5111 40.5586 28.4592 40.6024 28.4154C40.6461 28.3716 40.6981 28.3369 40.7553 28.3132C40.8125 28.2895 40.8738 28.2773 40.9357 28.2773H51.1327C51.2578 28.2773 51.3777 28.327 51.4661 28.4154C51.5545 28.5038 51.6041 28.6237 51.6041 28.7487C51.6041 28.8738 51.5545 28.9937 51.4661 29.0821C51.3777 29.1705 51.2578 29.2201 51.1327 29.2201V29.2201Z" fill="#CCCCCC"/>
<path d="M39.1093 31.1486H31.5011C31.4412 31.1485 31.3837 31.1247 31.3414 31.0823C31.299 31.0399 31.2752 30.9825 31.2751 30.9226V24.9848C31.2752 24.9249 31.299 24.8674 31.3414 24.8251C31.3837 24.7827 31.4412 24.7589 31.5011 24.7588H39.1093C39.1692 24.7589 39.2267 24.7827 39.269 24.8251C39.3114 24.8674 39.3352 24.9249 39.3353 24.9848V30.9226C39.3352 30.9825 39.3114 31.0399 39.269 31.0823C39.2267 31.1247 39.1692 31.1485 39.1093 31.1486V31.1486Z" fill="#6C63FF"/>
</g>
<defs>
<filter id="filter0_d_36_1375" x="0.00115967" y="0.000976562" width="69.3367" height="66.1201" filterUnits="userSpaceOnUse" color-interpolation-filters="sRGB">
<feFlood flood-opacity="0" result="BackgroundImageFix"/>
<feColorMatrix in="SourceAlpha" type="matrix" values="0 0 0 0 0 0 0 0 0 0 0 0 0 0 0 0 0 0 127 0" result="hardAlpha"/>
<feOffset/>
<feGaussianBlur stdDeviation="7"/>
<feComposite in2="hardAlpha" operator="out"/>
<feColorMatrix type="matrix" values="0 0 0 0 0.192157 0 0 0 0 0.423529 0 0 0 0 0.776471 0 0 0 0.2 0"/>
<feBlend mode="normal" in2="BackgroundImageFix" result="effect1_dropShadow_36_1375"/>
<feBlend mode="normal" in="SourceGraphic" in2="effect1_dropShadow_36_1375" result="shape"/>
</filter>
</defs>
</svg>
