<svg width="150" height="160" viewBox="0 0 150 160" fill="none" xmlns="http://www.w3.org/2000/svg">
<path d="M111.565 49.3694C111.257 48.6398 110.743 48.0163 110.085 47.5761C109.427 47.1359 108.654 46.8982 107.863 46.8926H33.9696C32.9074 46.8931 31.8889 47.3153 31.1378 48.0664C30.3867 48.8175 29.9646 49.836 29.964 50.8982V144.38C29.9646 145.442 30.3867 146.46 31.1378 147.212C31.8889 147.963 32.9074 148.385 33.9696 148.385H107.865C108.927 148.384 109.945 147.961 110.696 147.211C111.447 146.46 111.87 145.442 111.871 144.38V50.8982C111.873 50.3734 111.769 49.8537 111.567 49.3694H111.565ZM110.979 144.38C110.978 145.206 110.649 145.998 110.065 146.582C109.481 147.166 108.689 147.495 107.863 147.496H33.9696C33.1433 147.496 32.3509 147.167 31.7665 146.583C31.1822 145.999 30.8538 145.207 30.8535 144.38V50.8987C30.8546 50.0726 31.1833 49.2807 31.7674 48.6966C32.3516 48.1124 33.1435 47.7838 33.9696 47.7826H107.865C108.488 47.785 109.095 47.9727 109.61 48.3219C110.125 48.671 110.525 49.1657 110.758 49.7428C110.803 49.8578 110.842 49.9752 110.875 50.0944C110.946 50.3566 110.981 50.6271 110.981 50.8987L110.979 144.38Z" fill="#3F3D56"/>
<path d="M96.1439 68.9637H73.8863C73.414 68.9637 72.9611 68.7761 72.6271 68.4422C72.2932 68.1082 72.1056 67.6553 72.1056 67.183C72.1056 66.7108 72.2932 66.2578 72.6271 65.9239C72.9611 65.59 73.414 65.4023 73.8863 65.4023H96.1439C96.6162 65.4023 97.0691 65.59 97.4031 65.9239C97.737 66.2578 97.9246 66.7108 97.9246 67.183C97.9246 67.6553 97.737 68.1082 97.4031 68.4422C97.0691 68.7761 96.6162 68.9637 96.1439 68.9637V68.9637Z" fill="#CCCCCC"/>
<path d="M96.1439 78.3114H73.8863C73.414 78.3114 72.9611 78.1238 72.6271 77.7898C72.2932 77.4559 72.1056 77.003 72.1056 76.5307C72.1056 76.0584 72.2932 75.6055 72.6271 75.2716C72.9611 74.9376 73.414 74.75 73.8863 74.75H96.1439C96.6162 74.75 97.0691 74.9376 97.4031 75.2716C97.737 75.6055 97.9246 76.0584 97.9246 76.5307C97.9246 77.003 97.737 77.4559 97.4031 77.7898C97.0691 78.1238 96.6162 78.3114 96.1439 78.3114V78.3114Z" fill="#CCCCCC"/>
<path d="M62.4662 83.6342H46.2003C45.6692 83.6336 45.16 83.4223 44.7844 83.0468C44.4088 82.6712 44.1976 82.162 44.197 81.6308V62.4359C44.1976 61.9048 44.4088 61.3956 44.7844 61.02C45.16 60.6444 45.6692 60.4332 46.2003 60.4326H62.4662C62.9973 60.4332 63.5065 60.6444 63.8821 61.02C64.2577 61.3956 64.4689 61.9048 64.4695 62.4359V81.6308C64.4689 82.162 64.2577 82.6712 63.8821 83.0468C63.5065 83.4223 62.9973 83.6336 62.4662 83.6342Z" fill="#CCCCCC"/>
<path d="M95.9893 97.4529H45.6872C45.2149 97.4529 44.762 97.2653 44.4281 96.9314C44.0941 96.5975 43.9065 96.1446 43.9065 95.6723C43.9065 95.2 44.0941 94.7471 44.4281 94.4132C44.762 94.0792 45.2149 93.8916 45.6872 93.8916H95.9893C96.2232 93.8916 96.4547 93.9377 96.6708 94.0272C96.8868 94.1166 97.0831 94.2478 97.2485 94.4132C97.4138 94.5785 97.545 94.7748 97.6345 94.9909C97.724 95.2069 97.77 95.4384 97.77 95.6723C97.77 95.9061 97.724 96.1377 97.6345 96.3537C97.545 96.5698 97.4138 96.7661 97.2485 96.9314C97.0831 97.0968 96.8868 97.2279 96.6708 97.3174C96.4547 97.4069 96.2232 97.4529 95.9893 97.4529V97.4529Z" fill="#CCCCCC"/>
<path d="M95.9893 106.802H45.6872C45.2149 106.802 44.762 106.614 44.4281 106.28C44.0941 105.946 43.9065 105.493 43.9065 105.021C43.9065 104.549 44.0941 104.096 44.4281 103.762C44.762 103.428 45.2149 103.24 45.6872 103.24H95.9893C96.4616 103.24 96.9145 103.428 97.2485 103.762C97.5824 104.096 97.77 104.549 97.77 105.021C97.77 105.493 97.5824 105.946 97.2485 106.28C96.9145 106.614 96.4616 106.802 95.9893 106.802V106.802Z" fill="#CCCCCC"/>
<path d="M95.9893 116.149H45.6872C45.2149 116.149 44.762 115.962 44.4281 115.628C44.0941 115.294 43.9065 114.841 43.9065 114.369C43.9065 113.896 44.0941 113.443 44.4281 113.109C44.762 112.775 45.2149 112.588 45.6872 112.588H95.9893C96.4616 112.588 96.9145 112.775 97.2485 113.109C97.5824 113.443 97.77 113.896 97.77 114.369C97.77 114.841 97.5824 115.294 97.2485 115.628C96.9145 115.962 96.4616 116.149 95.9893 116.149V116.149Z" fill="#CCCCCC"/>
<path d="M95.9893 125.498H45.6872C45.2149 125.498 44.762 125.31 44.4281 124.976C44.0941 124.642 43.9065 124.189 43.9065 123.717C43.9065 123.245 44.0941 122.792 44.4281 122.458C44.762 122.124 45.2149 121.937 45.6872 121.937H95.9893C96.4616 121.937 96.9145 122.124 97.2485 122.458C97.5824 122.792 97.77 123.245 97.77 123.717C97.77 124.189 97.5824 124.642 97.2485 124.976C96.9145 125.31 96.4616 125.498 95.9893 125.498V125.498Z" fill="#CCCCCC"/>
<path d="M95.9893 134.846H45.6872C45.2149 134.846 44.762 134.658 44.4281 134.324C44.0941 133.99 43.9065 133.537 43.9065 133.065C43.9065 132.593 44.0941 132.14 44.4281 131.806C44.762 131.472 45.2149 131.284 45.6872 131.284H95.9893C96.4616 131.284 96.9145 131.472 97.2485 131.806C97.5824 132.14 97.77 132.593 97.77 133.065C97.77 133.537 97.5824 133.99 97.2485 134.324C96.9145 134.658 96.4616 134.846 95.9893 134.846V134.846Z" fill="#CCCCCC"/>
<path d="M18.5328 148.705H122.401C122.542 148.705 122.678 148.649 122.778 148.549C122.878 148.449 122.934 148.314 122.934 148.172C122.934 148.031 122.878 147.896 122.778 147.796C122.678 147.696 122.542 147.64 122.401 147.64H18.5328C18.3915 147.64 18.256 147.696 18.1561 147.796C18.0562 147.896 18.0001 148.031 18.0001 148.172C18.0001 148.314 18.0562 148.449 18.1561 148.549C18.256 148.649 18.3915 148.705 18.5328 148.705Z" fill="#3F3D56"/>
<g clip-path="url(#clip0_50_3078)">
<path fill-rule="evenodd" clip-rule="evenodd" d="M70.5002 0C78.5086 0 85.0001 6.49178 85.0001 14.4999C85.0001 22.508 78.5086 28.9998 70.5002 28.9998C62.4919 29 56.0001 22.5082 56.0001 14.4999C56.0001 6.49154 62.4919 0 70.5002 0ZM73.3349 9.23981C73.9839 8.58065 75.0391 8.57782 75.6916 9.23344C76.3439 9.88859 76.3465 10.9544 75.698 11.6131L72.8508 14.5013L75.7008 17.3921C76.3449 18.0458 76.3355 19.1048 75.682 19.7574C75.0275 20.4099 73.9756 20.4083 73.3325 19.7543L70.5017 16.8838L67.6654 19.7602C67.0163 20.4193 65.9614 20.4222 65.3086 19.7666C64.6565 19.1114 64.6535 18.0454 65.3022 17.3867L68.1496 14.4987L65.2994 11.6079C64.6556 10.9544 64.6648 9.89543 65.3188 9.24264C65.973 8.59009 67.0248 8.59174 67.6677 9.24571L70.4991 12.1167L73.3349 9.23981Z" fill="#FC5B5B"/>
</g>
<path d="M4.76109 88.6326L10.1501 93.3244L7.15497 99.8115L1.76591 95.1198L4.76109 88.6326Z" fill="#FC5B5B"/>
<path d="M31.8741 29.5038L29.9834 36.3359L22.8951 36.4338L24.7859 29.6017L31.8741 29.5038Z" fill="#FC5B5B"/>
<path d="M120.458 40.4251L126.963 41.5115L127.741 48.0601L121.237 46.9738L120.458 40.4251Z" fill="#FC5B5B"/>
<path d="M147.629 92.8149L146.3 97.6169L141.318 97.6857L142.647 92.8837L147.629 92.8149Z" fill="#FC5B5B"/>
<path d="M131.633 134.247L135.545 139.511L131.586 144.741L127.674 139.476L131.633 134.247Z" fill="#FC5B5B"/>
<path d="M9.21791 156.881L6.65721 152.423L1.66094 153.634L4.22164 158.091L9.21791 156.881Z" fill="#FC5B5B"/>
<defs>
<clipPath id="clip0_50_3078">
<rect width="29" height="29" fill="white" transform="translate(56.0001)"/>
</clipPath>
</defs>
</svg>
