<svg width="17" height="17" viewBox="0 0 17 17" fill="none" xmlns="http://www.w3.org/2000/svg">
<path d="M8.50008 15.5837C4.58796 15.5837 1.41675 12.4125 1.41675 8.50033C1.41675 4.5882 4.58796 1.41699 8.50008 1.41699C12.4122 1.41699 15.5834 4.5882 15.5834 8.50033C15.5834 12.4125 12.4122 15.5837 8.50008 15.5837ZM8.50008 14.167C10.003 14.167 11.4443 13.57 12.507 12.5073C13.5697 11.4446 14.1667 10.0032 14.1667 8.50033C14.1667 6.99743 13.5697 5.55609 12.507 4.49339C11.4443 3.43068 10.003 2.83366 8.50008 2.83366C6.99719 2.83366 5.55585 3.43068 4.49314 4.49339C3.43044 5.55609 2.83341 6.99743 2.83341 8.50033C2.83341 10.0032 3.43044 11.4446 4.49314 12.5073C5.55585 13.57 6.99719 14.167 8.50008 14.167ZM7.79175 10.6253H9.20842V12.042H7.79175V10.6253ZM7.79175 4.95866H9.20842V9.20866H7.79175V4.95866Z" fill="#EA6767"/>
</svg>
