<svg width="15" height="15" viewBox="0 0 15 15" fill="none" xmlns="http://www.w3.org/2000/svg">
<path d="M3.64247 4.375L5.22747 5.96L4.34372 6.84375L1.24997 3.75L4.34372 0.65625L5.22747 1.54L3.64247 3.125H8.12497C9.45105 3.125 10.7228 3.65178 11.6605 4.58947C12.5982 5.52715 13.125 6.79892 13.125 8.125C13.125 9.45108 12.5982 10.7229 11.6605 11.6605C10.7228 12.5982 9.45105 13.125 8.12497 13.125H2.49997V11.875H8.12497C9.11953 11.875 10.0734 11.4799 10.7766 10.7767C11.4799 10.0734 11.875 9.11956 11.875 8.125C11.875 7.13044 11.4799 6.17661 10.7766 5.47335C10.0734 4.77009 9.11953 4.375 8.12497 4.375H3.64247Z" fill="#3E3838"/>
</svg>
