<svg width="13" height="13" viewBox="0 0 13 13" fill="none" xmlns="http://www.w3.org/2000/svg">
<path d="M6.50004 11.9163C3.50842 11.9163 1.08337 9.4913 1.08337 6.49967C1.08337 3.50805 3.50842 1.08301 6.50004 1.08301C9.49166 1.08301 11.9167 3.50805 11.9167 6.49967C11.9167 9.4913 9.49166 11.9163 6.50004 11.9163ZM6.50004 10.833C7.64931 10.833 8.75151 10.3765 9.56417 9.5638C10.3768 8.75115 10.8334 7.64895 10.8334 6.49967C10.8334 5.3504 10.3768 4.2482 9.56417 3.43554C8.75151 2.62289 7.64931 2.16634 6.50004 2.16634C5.35077 2.16634 4.24857 2.62289 3.43591 3.43554C2.62325 4.2482 2.16671 5.3504 2.16671 6.49967C2.16671 7.64895 2.62325 8.75115 3.43591 9.5638C4.24857 10.3765 5.35077 10.833 6.50004 10.833ZM5.95837 8.12467H7.04171V9.20801H5.95837V8.12467ZM5.95837 3.79134H7.04171V7.04134H5.95837V3.79134Z" fill="#316CC6"/>
</svg>
