<svg width="16" height="14" viewBox="0 0 16 14" fill="none" xmlns="http://www.w3.org/2000/svg">
<path d="M7.43741 2.44925L7.7117 2.71696L7.97686 2.44019C8.07528 2.33747 8.16988 2.23742 8.2617 2.14033C9.14183 1.20953 9.76566 0.549784 11.0371 0.402825C12.3626 0.251901 13.6437 0.855661 14.4237 1.83976C15.1967 2.81513 15.4661 4.14758 14.7987 5.47956L14.7987 5.47965C14.4058 6.26416 13.5854 7.22884 12.636 8.21113L12.6359 8.21121C11.9825 8.88771 11.2955 9.54547 10.67 10.1443C10.2979 10.5006 9.94758 10.8361 9.63902 11.1422L7.69991 13.0657L6.14705 11.5712C6.14703 11.5712 6.147 11.5711 6.14698 11.5711C5.786 11.2235 5.39691 10.8688 4.99631 10.5036C4.1479 9.73011 3.24789 8.90963 2.4541 8.00988C1.2919 6.69256 0.440462 5.29014 0.38203 3.77883C0.31141 1.72742 1.91558 0.394972 3.82671 0.419188C4.68841 0.430889 5.28228 0.647828 5.80431 0.991357C6.2641 1.29393 6.66825 1.6922 7.15959 2.17638C7.24902 2.26451 7.34134 2.35548 7.43741 2.44925Z" stroke="#413636" stroke-width="0.759506"/>
</svg>
