<svg width="141" height="34" viewBox="0 0 141 34" fill="none" xmlns="http://www.w3.org/2000/svg">
<path d="M7.94933 3.34082L0 16.3797H15.8987L7.94933 3.34082Z" fill="#120078"/>
<path d="M31.1342 3.34082H17.2229V16.3797H31.1342V3.34082Z" fill="#9D0191"/>
<path d="M31.1347 24.8562C31.1347 27.7352 28.7615 30.0708 25.8353 30.0708C22.9088 30.0708 20.5356 27.7352 20.5356 24.8562C20.5356 21.9753 22.9088 19.6396 25.8353 19.6396C28.7615 19.6396 31.1347 21.9753 31.1347 24.8562Z" fill="#FECD1A"/>
<path d="M14.0919 19.6396H3.13168C1.41013 19.6396 0 20.4934 0 21.5361V28.1744C0 29.2173 1.41013 30.0708 3.13168 30.0708H14.0919C15.8139 30.0708 17.2235 29.2173 17.2235 28.1744V21.5361C17.2235 20.4934 15.8139 19.6396 14.0919 19.6396Z" fill="#FD3A69"/>
<path d="M42.7544 11.3427H39.2528L38.6915 13H36.2991L39.6938 3.61782H42.3401L45.7348 13H43.3157L42.7544 11.3427ZM42.1663 9.57858L41.0036 6.14379L39.8542 9.57858H42.1663ZM49.5345 13.1069C48.8841 13.1069 48.3049 12.9955 47.797 12.7728C47.2892 12.55 46.8882 12.2471 46.5942 11.864C46.3002 11.4719 46.1353 11.0354 46.0997 10.5542H48.3584C48.3851 10.8126 48.5054 11.022 48.7192 11.1824C48.9331 11.3427 49.1959 11.4229 49.5078 11.4229C49.7929 11.4229 50.0112 11.3695 50.1626 11.2626C50.323 11.1467 50.4032 10.9997 50.4032 10.8215C50.4032 10.6077 50.2918 10.4518 50.0691 10.3537C49.8463 10.2468 49.4855 10.131 48.9865 10.0063C48.4519 9.88152 48.0064 9.75232 47.65 9.61867C47.2936 9.47611 46.9862 9.25782 46.7279 8.96379C46.4695 8.66085 46.3403 8.25545 46.3403 7.74758C46.3403 7.3199 46.4561 6.93232 46.6878 6.58483C46.9283 6.22843 47.2758 5.94777 47.7302 5.74284C48.1935 5.53791 48.7415 5.43545 49.3741 5.43545C50.3097 5.43545 51.0447 5.66711 51.5793 6.13043C52.1228 6.59374 52.4347 7.20853 52.5149 7.97479H50.4032C50.3676 7.7164 50.2517 7.51147 50.0557 7.36C49.8686 7.20853 49.6191 7.1328 49.3073 7.1328C49.04 7.1328 48.8351 7.18626 48.6925 7.29317C48.5499 7.39118 48.4787 7.52929 48.4787 7.70749C48.4787 7.92133 48.59 8.08171 48.8128 8.18862C49.0444 8.29554 49.4008 8.40246 49.882 8.50938C50.4344 8.65194 50.8843 8.7945 51.2318 8.93706C51.5793 9.07071 51.8823 9.29346 52.1407 9.60531C52.4079 9.90825 52.5461 10.3181 52.555 10.8349C52.555 11.2715 52.4302 11.6635 52.1807 12.011C51.9402 12.3496 51.5882 12.6169 51.1249 12.8129C50.6705 13.0089 50.1404 13.1069 49.5345 13.1069ZM63.2017 5.46218C64.1283 5.46218 64.8634 5.74284 65.4069 6.30417C65.9593 6.8655 66.2355 7.64512 66.2355 8.64303V13H63.9635V8.95043C63.9635 8.46929 63.8343 8.09953 63.5759 7.84114C63.3264 7.57384 62.9789 7.44019 62.5335 7.44019C62.088 7.44019 61.736 7.57384 61.4776 7.84114C61.2281 8.09953 61.1034 8.46929 61.1034 8.95043V13H58.8314V8.95043C58.8314 8.46929 58.7022 8.09953 58.4438 7.84114C58.1943 7.57384 57.8468 7.44019 57.4013 7.44019C56.9558 7.44019 56.6039 7.57384 56.3455 7.84114C56.096 8.09953 55.9713 8.46929 55.9713 8.95043V13H53.6859V5.54237H55.9713V6.47791C56.2029 6.16607 56.5059 5.92104 56.8801 5.74284C57.2543 5.55573 57.6775 5.46218 58.1498 5.46218C58.7111 5.46218 59.21 5.58246 59.6466 5.82303C60.0921 6.0636 60.4396 6.40663 60.6891 6.85213C60.9475 6.44227 61.2994 6.10815 61.7449 5.84976C62.1904 5.59137 62.676 5.46218 63.2017 5.46218ZM67.1122 9.25782C67.1122 8.49156 67.2547 7.81886 67.5399 7.23971C67.8339 6.66057 68.2304 6.21507 68.7293 5.90322C69.2283 5.59137 69.7852 5.43545 70.4 5.43545C70.9257 5.43545 71.3845 5.54237 71.7766 5.75621C72.1775 5.97005 72.4849 6.25071 72.6987 6.5982V5.54237H74.9841V13H72.6987V11.9442C72.476 12.2917 72.1641 12.5723 71.7632 12.7862C71.3711 13 70.9123 13.1069 70.3866 13.1069C69.7807 13.1069 69.2283 12.951 68.7293 12.6391C68.2304 12.3184 67.8339 11.8684 67.5399 11.2893C67.2547 10.7012 67.1122 10.0241 67.1122 9.25782ZM72.6987 9.27118C72.6987 8.70095 72.5384 8.25099 72.2176 7.92133C71.9057 7.59166 71.5226 7.42682 71.0682 7.42682C70.6138 7.42682 70.2262 7.59166 69.9055 7.92133C69.5936 8.24208 69.4377 8.68758 69.4377 9.25782C69.4377 9.82806 69.5936 10.2825 69.9055 10.621C70.2262 10.9507 70.6138 11.1155 71.0682 11.1155C71.5226 11.1155 71.9057 10.9507 72.2176 10.621C72.5384 10.2914 72.6987 9.84142 72.6987 9.27118ZM75.9158 9.25782C75.9158 8.49156 76.0584 7.81886 76.3435 7.23971C76.6375 6.66057 77.034 6.21507 77.533 5.90322C78.0319 5.59137 78.5888 5.43545 79.2036 5.43545C79.6936 5.43545 80.1391 5.53791 80.5401 5.74284C80.9499 5.94777 81.2707 6.22398 81.5024 6.57147V3.10995H83.7878V13H81.5024V11.9308C81.2885 12.2872 80.9811 12.5723 80.5802 12.7862C80.1881 13 79.7293 13.1069 79.2036 13.1069C78.5888 13.1069 78.0319 12.951 77.533 12.6391C77.034 12.3184 76.6375 11.8684 76.3435 11.2893C76.0584 10.7012 75.9158 10.0241 75.9158 9.25782ZM81.5024 9.27118C81.5024 8.70095 81.342 8.25099 81.0212 7.92133C80.7094 7.59166 80.3262 7.42682 79.8718 7.42682C79.4174 7.42682 79.0298 7.59166 78.7091 7.92133C78.3972 8.24208 78.2413 8.68758 78.2413 9.25782C78.2413 9.82806 78.3972 10.2825 78.7091 10.621C79.0298 10.9507 79.4174 11.1155 79.8718 11.1155C80.3262 11.1155 80.7094 10.9507 81.0212 10.621C81.342 10.2914 81.5024 9.84142 81.5024 9.27118ZM86.3232 4.7672C85.9223 4.7672 85.5926 4.65137 85.3342 4.41971C85.0847 4.17915 84.96 3.88512 84.96 3.53763C84.96 3.18123 85.0847 2.8872 85.3342 2.65554C85.5926 2.41497 85.9223 2.29469 86.3232 2.29469C86.7153 2.29469 87.036 2.41497 87.2855 2.65554C87.5439 2.8872 87.6731 3.18123 87.6731 3.53763C87.6731 3.88512 87.5439 4.17915 87.2855 4.41971C87.036 4.65137 86.7153 4.7672 86.3232 4.7672ZM87.4593 5.54237V13H85.1738V5.54237H87.4593ZM96.4662 5.54237L91.7884 16.5417H89.3293L91.04 12.7461L88.0062 5.54237H90.5589L92.2829 10.2067L93.9937 5.54237H96.4662ZM96.5709 9.25782C96.5709 8.49156 96.7135 7.81886 96.9986 7.23971C97.2926 6.66057 97.6891 6.21507 98.1881 5.90322C98.687 5.59137 99.2439 5.43545 99.8587 5.43545C100.384 5.43545 100.843 5.54237 101.235 5.75621C101.636 5.97005 101.944 6.25071 102.157 6.5982V5.54237H104.443V13H102.157V11.9442C101.935 12.2917 101.623 12.5723 101.222 12.7862C100.83 13 100.371 13.1069 99.8453 13.1069C99.2394 13.1069 98.687 12.951 98.1881 12.6391C97.6891 12.3184 97.2926 11.8684 96.9986 11.2893C96.7135 10.7012 96.5709 10.0241 96.5709 9.25782ZM102.157 9.27118C102.157 8.70095 101.997 8.25099 101.676 7.92133C101.364 7.59166 100.981 7.42682 100.527 7.42682C100.073 7.42682 99.6849 7.59166 99.3642 7.92133C99.0523 8.24208 98.8964 8.68758 98.8964 9.25782C98.8964 9.82806 99.0523 10.2825 99.3642 10.621C99.6849 10.9507 100.073 11.1155 100.527 11.1155C100.981 11.1155 101.364 10.9507 101.676 10.621C101.997 10.2914 102.157 9.84142 102.157 9.27118ZM43.6632 20.6178V22.4488H41.1773V30H38.8919V22.4488H36.4061V20.6178H43.6632ZM51.5728 26.1509C51.5728 26.3647 51.5595 26.5875 51.5328 26.8191H46.3605C46.3962 27.2825 46.5432 27.6389 46.8016 27.8883C47.0689 28.1289 47.3941 28.2492 47.7772 28.2492C48.3474 28.2492 48.7439 28.0086 48.9667 27.5275H51.3991C51.2744 28.0175 51.0472 28.4586 50.7175 28.8506C50.3967 29.2427 49.9913 29.55 49.5013 29.7728C49.0112 29.9955 48.4633 30.1069 47.8574 30.1069C47.1268 30.1069 46.4764 29.951 45.9061 29.6391C45.3359 29.3273 44.8904 28.8818 44.5696 28.3027C44.2489 27.7235 44.0885 27.0464 44.0885 26.2712C44.0885 25.496 44.2444 24.8189 44.5563 24.2397C44.877 23.6606 45.3225 23.2151 45.8928 22.9032C46.463 22.5914 47.1179 22.4354 47.8574 22.4354C48.5791 22.4354 49.2206 22.5869 49.7819 22.8899C50.3433 23.1928 50.7799 23.6249 51.0917 24.1863C51.4125 24.7476 51.5728 25.4025 51.5728 26.1509ZM49.234 25.5495C49.234 25.1574 49.1003 24.8456 48.833 24.6139C48.5657 24.3823 48.2316 24.2664 47.8307 24.2664C47.4475 24.2664 47.1223 24.3778 46.855 24.6006C46.5966 24.8233 46.4363 25.1396 46.3739 25.5495H49.234ZM52.0568 26.2712C52.0568 25.496 52.2127 24.8189 52.5246 24.2397C52.8453 23.6606 53.2864 23.2151 53.8477 22.9032C54.4179 22.5914 55.0684 22.4354 55.799 22.4354C56.7345 22.4354 57.5142 22.6805 58.1378 23.1705C58.7705 23.6606 59.1848 24.3511 59.3808 25.2421H56.9484C56.7434 24.6718 56.3469 24.3867 55.7589 24.3867C55.3401 24.3867 55.006 24.5516 54.7565 24.8812C54.507 25.202 54.3823 25.6653 54.3823 26.2712C54.3823 26.8771 54.507 27.3448 54.7565 27.6745C55.006 27.9953 55.3401 28.1556 55.7589 28.1556C56.3469 28.1556 56.7434 27.8705 56.9484 27.3003H59.3808C59.1848 28.1735 58.7705 28.8595 58.1378 29.3585C57.5052 29.8574 56.7256 30.1069 55.799 30.1069C55.0684 30.1069 54.4179 29.951 53.8477 29.6391C53.2864 29.3273 52.8453 28.8818 52.5246 28.3027C52.2127 27.7235 52.0568 27.0464 52.0568 26.2712ZM64.9201 22.4622C65.7755 22.4622 66.4616 22.7473 66.9783 23.3175C67.4951 23.8789 67.7535 24.654 67.7535 25.643V30H65.4815V25.9504C65.4815 25.4515 65.3523 25.0639 65.0939 24.7877C64.8355 24.5115 64.488 24.3734 64.0514 24.3734C63.6148 24.3734 63.2673 24.5115 63.0089 24.7877C62.7506 25.0639 62.6214 25.4515 62.6214 25.9504V30H60.336V20.11H62.6214V23.5447C62.853 23.2151 63.1693 22.9522 63.5703 22.7562C63.9712 22.5602 64.4212 22.4622 64.9201 22.4622ZM73.6184 22.4622C74.4916 22.4622 75.1866 22.7473 75.7033 23.3175C76.229 23.8789 76.4919 24.654 76.4919 25.643V30H74.2198V25.9504C74.2198 25.4515 74.0906 25.0639 73.8322 24.7877C73.5739 24.5115 73.2264 24.3734 72.7898 24.3734C72.3532 24.3734 72.0057 24.5115 71.7473 24.7877C71.4889 25.0639 71.3597 25.4515 71.3597 25.9504V30H69.0743V22.5424H71.3597V23.5314C71.5914 23.2017 71.9032 22.9433 72.2953 22.7562C72.6873 22.5602 73.1284 22.4622 73.6184 22.4622ZM81.2074 30.1069C80.4768 30.1069 79.8174 29.951 79.2294 29.6391C78.6502 29.3273 78.1914 28.8818 77.8528 28.3027C77.5231 27.7235 77.3583 27.0464 77.3583 26.2712C77.3583 25.5049 77.5276 24.8322 77.8662 24.2531C78.2047 23.665 78.6681 23.2151 79.2561 22.9032C79.8442 22.5914 80.5035 22.4354 81.2341 22.4354C81.9647 22.4354 82.6241 22.5914 83.2121 22.9032C83.8002 23.2151 84.2635 23.665 84.6021 24.2531C84.9407 24.8322 85.1099 25.5049 85.1099 26.2712C85.1099 27.0374 84.9362 27.7146 84.5887 28.3027C84.2501 28.8818 83.7824 29.3273 83.1854 29.6391C82.5973 29.951 81.938 30.1069 81.2074 30.1069ZM81.2074 28.1289C81.644 28.1289 82.0137 27.9685 82.3167 27.6478C82.6285 27.327 82.7844 26.8682 82.7844 26.2712C82.7844 25.6742 82.633 25.2154 82.33 24.8946C82.036 24.5738 81.6707 24.4135 81.2341 24.4135C80.7886 24.4135 80.4189 24.5738 80.1248 24.8946C79.8308 25.2064 79.6838 25.6653 79.6838 26.2712C79.6838 26.8682 79.8263 27.327 80.1115 27.6478C80.4055 27.9685 80.7708 28.1289 81.2074 28.1289ZM88.3405 20.11V30H86.0551V20.11H88.3405ZM93.1241 30.1069C92.3935 30.1069 91.7342 29.951 91.1461 29.6391C90.5669 29.3273 90.1081 28.8818 89.7695 28.3027C89.4398 27.7235 89.275 27.0464 89.275 26.2712C89.275 25.5049 89.4443 24.8322 89.7829 24.2531C90.1215 23.665 90.5848 23.2151 91.1728 22.9032C91.7609 22.5914 92.4202 22.4354 93.1508 22.4354C93.8815 22.4354 94.5408 22.5914 95.1288 22.9032C95.7169 23.2151 96.1802 23.665 96.5188 24.2531C96.8574 24.8322 97.0267 25.5049 97.0267 26.2712C97.0267 27.0374 96.8529 27.7146 96.5054 28.3027C96.1669 28.8818 95.6991 29.3273 95.1021 29.6391C94.5141 29.951 93.8547 30.1069 93.1241 30.1069ZM93.1241 28.1289C93.5607 28.1289 93.9305 27.9685 94.2334 27.6478C94.5452 27.327 94.7012 26.8682 94.7012 26.2712C94.7012 25.6742 94.5497 25.2154 94.2468 24.8946C93.9527 24.5738 93.5874 24.4135 93.1508 24.4135C92.7053 24.4135 92.3356 24.5738 92.0415 24.8946C91.7475 25.2064 91.6005 25.6653 91.6005 26.2712C91.6005 26.8682 91.7431 27.327 92.0282 27.6478C92.3222 27.9685 92.6875 28.1289 93.1241 28.1289ZM100.805 22.4354C101.331 22.4354 101.79 22.5424 102.182 22.7562C102.583 22.97 102.89 23.2507 103.104 23.5982V22.5424H105.389V29.9866C105.389 30.6727 105.251 31.2919 104.975 31.8444C104.708 32.4057 104.293 32.8512 103.732 33.1809C103.18 33.5105 102.489 33.6754 101.661 33.6754C100.556 33.6754 99.6603 33.4125 98.9742 32.8868C98.2881 32.37 97.8961 31.6662 97.7981 30.7752H100.057C100.128 31.0603 100.297 31.283 100.565 31.4434C100.832 31.6127 101.162 31.6973 101.554 31.6973C102.026 31.6973 102.4 31.5592 102.676 31.283C102.961 31.0157 103.104 30.5836 103.104 29.9866V28.9308C102.881 29.2783 102.574 29.5634 102.182 29.7862C101.79 30 101.331 30.1069 100.805 30.1069C100.19 30.1069 99.6335 29.951 99.1346 29.6391C98.6356 29.3184 98.2391 28.8684 97.9451 28.2893C97.66 27.7012 97.5174 27.0241 97.5174 26.2578C97.5174 25.4916 97.66 24.8189 97.9451 24.2397C98.2391 23.6606 98.6356 23.2151 99.1346 22.9032C99.6335 22.5914 100.19 22.4354 100.805 22.4354ZM103.104 26.2712C103.104 25.7009 102.944 25.251 102.623 24.9213C102.311 24.5917 101.928 24.4268 101.473 24.4268C101.019 24.4268 100.631 24.5917 100.311 24.9213C99.9988 25.2421 99.8429 25.6876 99.8429 26.2578C99.8429 26.8281 99.9988 27.2825 100.311 27.621C100.631 27.9507 101.019 28.1155 101.473 28.1155C101.928 28.1155 102.311 27.9507 102.623 27.621C102.944 27.2914 103.104 26.8414 103.104 26.2712ZM107.925 21.7672C107.524 21.7672 107.194 21.6514 106.936 21.4197C106.686 21.1791 106.562 20.8851 106.562 20.5376C106.562 20.1812 106.686 19.8872 106.936 19.6555C107.194 19.415 107.524 19.2947 107.925 19.2947C108.317 19.2947 108.638 19.415 108.887 19.6555C109.145 19.8872 109.275 20.1812 109.275 20.5376C109.275 20.8851 109.145 21.1791 108.887 21.4197C108.638 21.6514 108.317 21.7672 107.925 21.7672ZM109.061 22.5424V30H106.775V22.5424H109.061ZM117.48 26.1509C117.48 26.3647 117.466 26.5875 117.44 26.8191H112.267C112.303 27.2825 112.45 27.6389 112.708 27.8883C112.976 28.1289 113.301 28.2492 113.684 28.2492C114.254 28.2492 114.651 28.0086 114.874 27.5275H117.306C117.181 28.0175 116.954 28.4586 116.624 28.8506C116.304 29.2427 115.898 29.55 115.408 29.7728C114.918 29.9955 114.37 30.1069 113.764 30.1069C113.034 30.1069 112.383 29.951 111.813 29.6391C111.243 29.3273 110.797 28.8818 110.476 28.3027C110.156 27.7235 109.995 27.0464 109.995 26.2712C109.995 25.496 110.151 24.8189 110.463 24.2397C110.784 23.6606 111.229 23.2151 111.8 22.9032C112.37 22.5914 113.025 22.4354 113.764 22.4354C114.486 22.4354 115.127 22.5869 115.689 22.8899C116.25 23.1928 116.687 23.6249 116.999 24.1863C117.319 24.7476 117.48 25.4025 117.48 26.1509ZM115.141 25.5495C115.141 25.1574 115.007 24.8456 114.74 24.6139C114.473 24.3823 114.138 24.2664 113.738 24.2664C113.354 24.2664 113.029 24.3778 112.762 24.6006C112.503 24.8233 112.343 25.1396 112.281 25.5495H115.141ZM121.452 30.1069C120.801 30.1069 120.222 29.9955 119.714 29.7728C119.207 29.55 118.806 29.2471 118.512 28.864C118.218 28.4719 118.053 28.0354 118.017 27.5542H120.276C120.303 27.8126 120.423 28.022 120.637 28.1824C120.85 28.3427 121.113 28.4229 121.425 28.4229C121.71 28.4229 121.929 28.3695 122.08 28.2626C122.24 28.1467 122.321 27.9997 122.321 27.8215C122.321 27.6077 122.209 27.4518 121.987 27.3537C121.764 27.2468 121.403 27.131 120.904 27.0063C120.369 26.8815 119.924 26.7523 119.567 26.6187C119.211 26.4761 118.904 26.2578 118.645 25.9638C118.387 25.6609 118.258 25.2554 118.258 24.7476C118.258 24.3199 118.374 23.9323 118.605 23.5848C118.846 23.2284 119.193 22.9478 119.648 22.7428C120.111 22.5379 120.659 22.4354 121.292 22.4354C122.227 22.4354 122.962 22.6671 123.497 23.1304C124.04 23.5937 124.352 24.2085 124.432 24.9748H122.321C122.285 24.7164 122.169 24.5115 121.973 24.36C121.786 24.2085 121.537 24.1328 121.225 24.1328C120.957 24.1328 120.752 24.1863 120.61 24.2932C120.467 24.3912 120.396 24.5293 120.396 24.7075C120.396 24.9213 120.507 25.0817 120.73 25.1886C120.962 25.2955 121.318 25.4025 121.799 25.5094C122.352 25.6519 122.802 25.7945 123.149 25.9371C123.497 26.0707 123.8 26.2935 124.058 26.6053C124.325 26.9082 124.463 27.3181 124.472 27.8349C124.472 28.2715 124.348 28.6635 124.098 29.011C123.858 29.3496 123.506 29.6169 123.042 29.8129C122.588 30.0089 122.058 30.1069 121.452 30.1069Z" fill="#3963A2"/>
</svg>
