<svg width="12" height="11" viewBox="0 0 12 11" fill="none" xmlns="http://www.w3.org/2000/svg">
<g clip-path="url(#clip0_34_1181)">
<path d="M5.99996 10.0837C3.46858 10.0837 1.41663 8.0317 1.41663 5.50033C1.41663 2.96895 3.46858 0.916993 5.99996 0.916993C6.71159 0.916459 7.41355 1.08189 8.05005 1.40014C8.68656 1.71839 9.24007 2.1807 9.66663 2.75033H8.42454C7.89527 2.28363 7.24258 1.97957 6.54479 1.87464C5.84699 1.7697 5.13374 1.86834 4.49062 2.15872C3.84749 2.4491 3.30182 2.91888 2.91907 3.5117C2.53633 4.10452 2.33277 4.79519 2.33283 5.50083C2.33289 6.20648 2.53656 6.89711 2.91941 7.48987C3.30225 8.08262 3.848 8.55232 4.49117 8.84259C5.13435 9.13287 5.84761 9.23139 6.54539 9.12633C7.24317 9.02128 7.89581 8.71711 8.425 8.25033H9.66708C9.24049 8.82002 8.6869 9.28236 8.05031 9.60062C7.41372 9.91887 6.71167 10.0843 5.99996 10.0837V10.0837ZM9.20829 7.33366V5.95866H5.54163V5.04199H9.20829V3.66699L11.5 5.50033L9.20829 7.33366Z" fill="#EA6767"/>
</g>
<defs>
<clipPath id="clip0_34_1181">
<rect width="11" height="11" fill="white" transform="translate(0.5)"/>
</clipPath>
</defs>
</svg>
