<svg width="15" height="15" viewBox="0 0 15 15" fill="none" xmlns="http://www.w3.org/2000/svg">
<path d="M6.25 3.75V5H3.125V11.875H10V8.75H11.25V12.5C11.25 12.6658 11.1842 12.8247 11.0669 12.9419C10.9497 13.0592 10.7908 13.125 10.625 13.125H2.5C2.33424 13.125 2.17527 13.0592 2.05806 12.9419C1.94085 12.8247 1.875 12.6658 1.875 12.5V4.375C1.875 4.20924 1.94085 4.05027 2.05806 3.93306C2.17527 3.81585 2.33424 3.75 2.5 3.75H6.25ZM13.125 1.875V6.875H11.875V4.00813L7.00437 8.87937L6.12063 7.99563L10.9906 3.125H8.125V1.875H13.125Z" fill="#3E3838"/>
</svg>
