<svg width="14" height="14" viewBox="0 0 14 14" fill="none" xmlns="http://www.w3.org/2000/svg">
<path d="M6.41666 1.16699C9.31466 1.16699 11.6667 3.51899 11.6667 6.41699C11.6667 9.31499 9.31466 11.667 6.41666 11.667C3.51866 11.667 1.16666 9.31499 1.16666 6.41699C1.16666 3.51899 3.51866 1.16699 6.41666 1.16699ZM6.41666 10.5003C8.67241 10.5003 10.5 8.67274 10.5 6.41699C10.5 4.16066 8.67241 2.33366 6.41666 2.33366C4.16032 2.33366 2.33332 4.16066 2.33332 6.41699C2.33332 8.67274 4.16032 10.5003 6.41666 10.5003ZM11.3662 10.5417L13.0165 12.1914L12.1911 13.0168L10.5414 11.3666L11.3662 10.5417Z" fill="#84A0CA"/>
</svg>
