<svg width="22" height="22" viewBox="0 0 22 22" fill="none" xmlns="http://www.w3.org/2000/svg">
<g clip-path="url(#clip0_29_9351)">
<path d="M8.20327 8.67728C8.74427 8.67728 9.2331 8.89698 9.58736 9.25124C9.667 9.33088 9.74114 9.41876 9.80705 9.51213L12.8965 8.22691C12.7977 7.99348 12.7455 7.73809 12.7455 7.47171C12.7455 6.93071 12.9652 6.44188 13.3194 6.08763C13.6737 5.73337 14.1625 5.51367 14.7035 5.51367C15.2445 5.51367 15.7333 5.73337 16.0876 6.08763C16.4419 6.44188 16.6615 6.93071 16.6615 7.47171C16.6615 8.01271 16.4419 8.50153 16.0876 8.85579C15.7333 9.21005 15.2445 9.42974 14.7035 9.42974C14.1625 9.42974 13.6737 9.21005 13.3194 8.85579C13.259 8.79537 13.2013 8.72946 13.1492 8.66081L10.0405 9.95426C10.1201 10.1657 10.1641 10.3964 10.1641 10.6353C10.1641 10.7836 10.1476 10.9264 10.1174 11.0665L13.2233 12.522C13.2535 12.4863 13.2865 12.4506 13.3222 12.4149C13.6764 12.0606 14.1653 11.8409 14.7063 11.8409C15.2473 11.8409 15.7361 12.0606 16.0903 12.4149C16.4446 12.7691 16.6643 13.2579 16.6643 13.7989C16.6643 14.3399 16.4446 14.8288 16.0903 15.183C15.7361 15.5373 15.2473 15.757 14.7063 15.757C14.1653 15.757 13.6764 15.5373 13.3222 15.183C12.9679 14.8288 12.7482 14.3399 12.7482 13.7989C12.7482 13.4914 12.8196 13.1975 12.9487 12.9394L9.94985 11.5333C9.85648 11.7146 9.73565 11.8793 9.59285 12.0194C9.23859 12.3737 8.74977 12.5934 8.20877 12.5934C7.66777 12.5934 7.17895 12.3737 6.82469 12.0194C6.47043 11.6651 6.25073 11.1763 6.25073 10.6353C6.25073 10.0943 6.47043 9.6055 6.82469 9.25124C7.17895 8.89698 7.66777 8.67728 8.20877 8.67728H8.20327ZM15.7333 6.43914C15.4697 6.1755 15.1045 6.01073 14.7008 6.01073C14.2971 6.01073 13.9318 6.1755 13.6682 6.43914C13.4046 6.70277 13.2398 7.06802 13.2398 7.47171C13.2398 7.8754 13.4046 8.24064 13.6682 8.50427C13.9318 8.76791 14.2971 8.93268 14.7008 8.93268C15.1045 8.93268 15.4697 8.76791 15.7333 8.50427C15.997 8.24064 16.1617 7.8754 16.1617 7.47171C16.1617 7.06802 15.997 6.70277 15.7333 6.43914ZM15.7333 12.7636C15.4697 12.5 15.1045 12.3352 14.7008 12.3352C14.2971 12.3352 13.9318 12.5 13.6682 12.7636C13.4046 13.0273 13.2398 13.3925 13.2398 13.7962C13.2398 14.1999 13.4046 14.5651 13.6682 14.8288C13.9318 15.0924 14.2971 15.2572 14.7008 15.2572C15.1045 15.2572 15.4697 15.0924 15.7333 14.8288C15.997 14.5651 16.1617 14.1999 16.1617 13.7962C16.1617 13.3925 15.997 13.0273 15.7333 12.7636ZM9.23584 9.60001C8.97221 9.33637 8.60697 9.1716 8.20327 9.1716C7.79958 9.1716 7.43434 9.33637 7.17071 9.60001C6.90707 9.86364 6.7423 10.2289 6.7423 10.6326C6.7423 11.0363 6.90707 11.4015 7.17071 11.6651C7.43434 11.9288 7.79958 12.0935 8.20327 12.0935C8.60697 12.0935 8.97221 11.9288 9.23584 11.6651C9.49948 11.4015 9.66425 11.0363 9.66425 10.6326C9.66425 10.2289 9.49948 9.86364 9.23584 9.60001Z" fill="#3E3838"/>
</g>
<defs>
<clipPath id="clip0_29_9351">
<rect width="10.4108" height="10.2405" fill="white" transform="translate(6.24512 5.51367)"/>
</clipPath>
</defs>
</svg>
