<svg width="155" height="183" viewBox="0 0 155 183" fill="none" xmlns="http://www.w3.org/2000/svg">
<path d="M114.565 59.3694C114.257 58.6398 113.743 58.0163 113.085 57.5761C112.427 57.1359 111.654 56.8982 110.863 56.8926H36.9695C35.9073 56.8931 34.8888 57.3153 34.1377 58.0664C33.3866 58.8175 32.9644 59.836 32.9639 60.8982V154.38C32.9644 155.442 33.3866 156.46 34.1377 157.212C34.8888 157.963 35.9073 158.385 36.9695 158.385H110.865C111.927 158.384 112.945 157.961 113.696 157.211C114.447 156.46 114.869 155.442 114.871 154.38V60.8982C114.873 60.3734 114.769 59.8537 114.567 59.3694H114.565ZM113.979 154.38C113.978 155.206 113.649 155.998 113.065 156.582C112.481 157.166 111.689 157.495 110.863 157.496H36.9695C36.1432 157.496 35.3508 157.167 34.7664 156.583C34.1821 155.999 33.8537 155.207 33.8534 154.38V60.8987C33.8545 60.0726 34.1832 59.2807 34.7673 58.6966C35.3515 58.1124 36.1434 57.7838 36.9695 57.7826H110.865C111.488 57.785 112.095 57.9727 112.61 58.3219C113.125 58.671 113.525 59.1657 113.758 59.7428C113.803 59.8578 113.842 59.9752 113.875 60.0944C113.945 60.3566 113.981 60.6271 113.981 60.8987L113.979 154.38Z" fill="#3F3D56"/>
<path d="M99.1438 78.9637H76.8861C76.4139 78.9637 75.961 78.7761 75.627 78.4422C75.2931 78.1082 75.1055 77.6553 75.1055 77.183C75.1055 76.7108 75.2931 76.2578 75.627 75.9239C75.961 75.59 76.4139 75.4023 76.8861 75.4023H99.1438C99.616 75.4023 100.069 75.59 100.403 75.9239C100.737 76.2578 100.924 76.7108 100.924 77.183C100.924 77.6553 100.737 78.1082 100.403 78.4422C100.069 78.7761 99.616 78.9637 99.1438 78.9637V78.9637Z" fill="#CCCCCC"/>
<path d="M99.1438 88.3114H76.8861C76.4139 88.3114 75.961 88.1238 75.627 87.7898C75.2931 87.4559 75.1055 87.003 75.1055 86.5307C75.1055 86.0584 75.2931 85.6055 75.627 85.2716C75.961 84.9376 76.4139 84.75 76.8861 84.75H99.1438C99.616 84.75 100.069 84.9376 100.403 85.2716C100.737 85.6055 100.924 86.0584 100.924 86.5307C100.924 87.003 100.737 87.4559 100.403 87.7898C100.069 88.1238 99.616 88.3114 99.1438 88.3114V88.3114Z" fill="#CCCCCC"/>
<path d="M65.466 93.6342H49.2002C48.6691 93.6336 48.1598 93.4223 47.7843 93.0468C47.4087 92.6712 47.1974 92.162 47.1969 91.6308V72.4359C47.1974 71.9048 47.4087 71.3956 47.7843 71.02C48.1598 70.6444 48.6691 70.4332 49.2002 70.4326H65.466C65.9972 70.4332 66.5064 70.6444 66.8819 71.02C67.2575 71.3956 67.4688 71.9048 67.4693 72.4359V91.6308C67.4688 92.162 67.2575 92.6712 66.8819 93.0468C66.5064 93.4223 65.9972 93.6336 65.466 93.6342Z" fill="#CCCCCC"/>
<path d="M98.9892 107.453H48.687C48.2148 107.453 47.7619 107.265 47.4279 106.931C47.094 106.597 46.9064 106.145 46.9064 105.672C46.9064 105.2 47.094 104.747 47.4279 104.413C47.7619 104.079 48.2148 103.892 48.687 103.892H98.9892C99.223 103.892 99.4546 103.938 99.6706 104.027C99.8867 104.117 100.083 104.248 100.248 104.413C100.414 104.579 100.545 104.775 100.634 104.991C100.724 105.207 100.77 105.438 100.77 105.672C100.77 105.906 100.724 106.138 100.634 106.354C100.545 106.57 100.414 106.766 100.248 106.931C100.083 107.097 99.8867 107.228 99.6706 107.317C99.4546 107.407 99.223 107.453 98.9892 107.453V107.453Z" fill="#CCCCCC"/>
<path d="M98.9892 116.802H48.687C48.2148 116.802 47.7619 116.614 47.4279 116.28C47.094 115.946 46.9064 115.493 46.9064 115.021C46.9064 114.549 47.094 114.096 47.4279 113.762C47.7619 113.428 48.2148 113.24 48.687 113.24H98.9892C99.4615 113.24 99.9144 113.428 100.248 113.762C100.582 114.096 100.77 114.549 100.77 115.021C100.77 115.493 100.582 115.946 100.248 116.28C99.9144 116.614 99.4615 116.802 98.9892 116.802V116.802Z" fill="#CCCCCC"/>
<path d="M98.9892 126.149H48.687C48.2148 126.149 47.7619 125.962 47.4279 125.628C47.094 125.294 46.9064 124.841 46.9064 124.369C46.9064 123.896 47.094 123.443 47.4279 123.109C47.7619 122.775 48.2148 122.588 48.687 122.588H98.9892C99.4615 122.588 99.9144 122.775 100.248 123.109C100.582 123.443 100.77 123.896 100.77 124.369C100.77 124.841 100.582 125.294 100.248 125.628C99.9144 125.962 99.4615 126.149 98.9892 126.149V126.149Z" fill="#CCCCCC"/>
<path d="M98.9892 135.498H48.687C48.2148 135.498 47.7619 135.31 47.4279 134.976C47.094 134.642 46.9064 134.189 46.9064 133.717C46.9064 133.245 47.094 132.792 47.4279 132.458C47.7619 132.124 48.2148 131.937 48.687 131.937H98.9892C99.4615 131.937 99.9144 132.124 100.248 132.458C100.582 132.792 100.77 133.245 100.77 133.717C100.77 134.189 100.582 134.642 100.248 134.976C99.9144 135.31 99.4615 135.498 98.9892 135.498V135.498Z" fill="#CCCCCC"/>
<path d="M98.9892 144.846H48.687C48.2148 144.846 47.7619 144.658 47.4279 144.324C47.094 143.99 46.9064 143.537 46.9064 143.065C46.9064 142.593 47.094 142.14 47.4279 141.806C47.7619 141.472 48.2148 141.284 48.687 141.284H98.9892C99.4615 141.284 99.9144 141.472 100.248 141.806C100.582 142.14 100.77 142.593 100.77 143.065C100.77 143.537 100.582 143.99 100.248 144.324C99.9144 144.658 99.4615 144.846 98.9892 144.846V144.846Z" fill="#CCCCCC"/>
<path d="M75.1676 34.3693C84.6584 34.3693 92.3522 26.6754 92.3522 17.1846C92.3522 7.69382 84.6584 0 75.1676 0C65.6767 0 57.9829 7.69382 57.9829 17.1846C57.9829 26.6754 65.6767 34.3693 75.1676 34.3693Z" fill="#27C09C"/>
<path d="M73.4641 23.7397C73.0775 23.7403 72.7011 23.6153 72.3918 23.3833L72.3727 23.3689L68.334 20.2795C68.1467 20.1362 67.9895 19.9574 67.8713 19.7533C67.7531 19.5492 67.6763 19.3238 67.6453 19.09C67.6143 18.8562 67.6297 18.6186 67.6906 18.3907C67.7514 18.1629 67.8566 17.9492 68.0001 17.7621C68.1436 17.5749 68.3226 17.4178 68.5268 17.2999C68.7311 17.1819 68.9566 17.1054 69.1904 17.0746C69.4242 17.0439 69.6618 17.0595 69.8896 17.1206C70.1174 17.1817 70.3309 17.2872 70.5179 17.4309L73.1338 19.4369L79.3153 11.3724C79.6048 10.9948 80.0324 10.7477 80.5041 10.6854C80.9758 10.6231 81.453 10.7507 81.8306 11.0402L81.8311 11.0406L81.7927 11.0938L81.8321 11.0406C82.2093 11.3305 82.4561 11.7582 82.5184 12.2298C82.5806 12.7015 82.4531 13.1785 82.164 13.5563L74.8932 23.0376C74.725 23.2561 74.5087 23.4329 74.2611 23.5543C74.0136 23.6756 73.7414 23.7384 73.4657 23.7375L73.4641 23.7397Z" fill="white"/>
<path d="M21.5327 158.705H125.401C125.542 158.705 125.678 158.649 125.778 158.549C125.878 158.449 125.934 158.314 125.934 158.172C125.934 158.031 125.878 157.896 125.778 157.796C125.678 157.696 125.542 157.64 125.401 157.64H21.5327C21.3914 157.64 21.2559 157.696 21.156 157.796C21.0561 157.896 21 158.031 21 158.172C21 158.314 21.0561 158.449 21.156 158.549C21.2559 158.649 21.3914 158.705 21.5327 158.705Z" fill="#3F3D56"/>
<path d="M8.5 91L10.4084 96.8734L16.584 96.8734L11.5878 100.503L13.4962 106.377L8.5 102.747L3.50383 106.377L5.41219 100.503L0.416019 96.8734L6.59163 96.8734L8.5 91Z" fill="#27C09C"/>
<path d="M32.5 20L34.4084 25.8734L40.584 25.8734L35.5878 29.5033L37.4962 35.3766L32.5 31.7467L27.5038 35.3766L29.4122 29.5033L24.416 25.8734L30.5916 25.8734L32.5 20Z" fill="#27C09C"/>
<path d="M146.5 50L148.408 55.8734L154.584 55.8734L149.588 59.5033L151.496 65.3766L146.5 61.7467L141.504 65.3766L143.412 59.5033L138.416 55.8734L144.592 55.8734L146.5 50Z" fill="#27C09C"/>
<path d="M138.5 126L140.408 131.873L146.584 131.873L141.588 135.503L143.496 141.377L138.5 137.747L133.504 141.377L135.412 135.503L130.416 131.873L136.592 131.873L138.5 126Z" fill="#27C09C"/>
<path d="M57.5 166L59.4084 171.873L65.584 171.873L60.5878 175.503L62.4962 181.377L57.5 177.747L52.5038 181.377L54.4122 175.503L49.416 171.873L55.5916 171.873L57.5 166Z" fill="#27C09C"/>
</svg>
