<svg width="15" height="4" viewBox="0 0 15 4" fill="none" xmlns="http://www.w3.org/2000/svg">
<path d="M0.00439453 1.77148C0.00439453 1.39518 0.137207 1.07975 0.402832 0.825195C0.673991 0.570638 1.02539 0.443359 1.45703 0.443359C1.89421 0.443359 2.24284 0.570638 2.50293 0.825195C2.76855 1.07975 2.90137 1.39518 2.90137 1.77148C2.90137 2.14225 2.76855 2.45492 2.50293 2.70947C2.24284 2.96403 1.89421 3.09131 1.45703 3.09131C1.02539 3.09131 0.673991 2.96403 0.402832 2.70947C0.137207 2.45492 0.00439453 2.14225 0.00439453 1.77148ZM5.90127 1.77148C5.90127 1.39518 6.03408 1.07975 6.29971 0.825195C6.57087 0.570638 6.92227 0.443359 7.35391 0.443359C7.79108 0.443359 8.13971 0.570638 8.3998 0.825195C8.66543 1.07975 8.79824 1.39518 8.79824 1.77148C8.79824 2.14225 8.66543 2.45492 8.3998 2.70947C8.13971 2.96403 7.79108 3.09131 7.35391 3.09131C6.92227 3.09131 6.57087 2.96403 6.29971 2.70947C6.03408 2.45492 5.90127 2.14225 5.90127 1.77148ZM11.7981 1.77148C11.7981 1.39518 11.931 1.07975 12.1966 0.825195C12.4677 0.570638 12.8191 0.443359 13.2508 0.443359C13.688 0.443359 14.0366 0.570638 14.2967 0.825195C14.5623 1.07975 14.6951 1.39518 14.6951 1.77148C14.6951 2.14225 14.5623 2.45492 14.2967 2.70947C14.0366 2.96403 13.688 3.09131 13.2508 3.09131C12.8191 3.09131 12.4677 2.96403 12.1966 2.70947C11.931 2.45492 11.7981 2.14225 11.7981 1.77148Z" fill="#316CC6"/>
</svg>
