<svg width="19" height="15" viewBox="0 0 19 15" fill="none" xmlns="http://www.w3.org/2000/svg">
<g clip-path="url(#clip0_20_1616)">
<path d="M0.383469 3.20687H1.07927V1.68229C1.07927 1.47046 1.2509 1.29883 1.46273 1.29883H2.14462V0.383464C2.14462 0.171631 2.31625 0 2.52808 0H8.75318C8.96501 0 9.13664 0.171631 9.13664 0.383464V1.29883H17.5326C17.7445 1.29883 17.9161 1.47046 17.9161 1.68229V3.20687H18.6165C18.8284 3.20687 19 3.3785 19 3.59033C19 3.61816 18.9969 3.646 18.9907 3.67074L17.6486 13.5372C17.6053 13.8588 17.4646 14.1572 17.2481 14.3737C17.0348 14.5871 16.7518 14.7201 16.4194 14.7201H2.27295C1.93897 14.7201 1.64983 14.5855 1.43336 14.3706C1.21534 14.1526 1.07618 13.8526 1.04061 13.5264L0.00155202 3.63053C-0.0200951 3.42025 0.132981 3.23161 0.343268 3.20996C0.357184 3.20841 0.369553 3.20841 0.383469 3.20687ZM1.46273 3.97534H0.808681L1.8029 13.4491C1.81837 13.6006 1.88021 13.7351 1.97299 13.8294C2.0503 13.9067 2.1539 13.9547 2.27141 13.9547H16.4194C16.5353 13.9547 16.6327 13.9083 16.7085 13.8325C16.8044 13.7367 16.8678 13.5959 16.8894 13.4382L18.1759 3.97689H1.46273V3.97534ZM1.8462 2.0673V3.20532L17.1492 3.04297V2.0673H8.75318C8.54135 2.0673 8.36972 1.89567 8.36972 1.68384V0.768473H2.91155V1.68384C2.91155 1.89567 2.73991 2.0673 2.52808 2.0673H1.8462Z" fill="#3E3838"/>
</g>
<defs>
<clipPath id="clip0_20_1616">
<rect width="19" height="14.7216" fill="white"/>
</clipPath>
</defs>
</svg>
