<svg width="13" height="13" viewBox="0 0 13 13" fill="none" xmlns="http://www.w3.org/2000/svg">
<path d="M10.8334 11.917H9.75002V10.8337C9.75002 10.4027 9.57882 9.98936 9.27407 9.68461C8.96932 9.37986 8.556 9.20866 8.12502 9.20866H4.87502C4.44404 9.20866 4.03072 9.37986 3.72597 9.68461C3.42123 9.98936 3.25002 10.4027 3.25002 10.8337V11.917H2.16669V10.8337C2.16669 10.1154 2.45203 9.42649 2.95994 8.91858C3.46785 8.41067 4.15673 8.12533 4.87502 8.12533H8.12502C8.84331 8.12533 9.53219 8.41067 10.0401 8.91858C10.548 9.42649 10.8334 10.1154 10.8334 10.8337V11.917ZM6.50002 7.04199C6.07322 7.04199 5.65061 6.95793 5.2563 6.7946C4.86199 6.63127 4.50371 6.39188 4.20192 6.09009C3.90013 5.7883 3.66074 5.43002 3.49741 5.03571C3.33408 4.64141 3.25002 4.21879 3.25002 3.79199C3.25002 3.3652 3.33408 2.94258 3.49741 2.54827C3.66074 2.15396 3.90013 1.79569 4.20192 1.4939C4.50371 1.1921 4.86199 0.952711 5.2563 0.789384C5.65061 0.626056 6.07322 0.541992 6.50002 0.541992C7.36197 0.541992 8.18862 0.884402 8.79812 1.4939C9.40761 2.10339 9.75002 2.93004 9.75002 3.79199C9.75002 4.65395 9.40761 5.4806 8.79812 6.09009C8.18862 6.69958 7.36197 7.04199 6.50002 7.04199V7.04199ZM6.50002 5.95866C7.07466 5.95866 7.62576 5.73039 8.03208 5.32406C8.43841 4.91773 8.66669 4.36663 8.66669 3.79199C8.66669 3.21736 8.43841 2.66626 8.03208 2.25993C7.62576 1.8536 7.07466 1.62533 6.50002 1.62533C5.92538 1.62533 5.37428 1.8536 4.96796 2.25993C4.56163 2.66626 4.33335 3.21736 4.33335 3.79199C4.33335 4.36663 4.56163 4.91773 4.96796 5.32406C5.37428 5.73039 5.92538 5.95866 6.50002 5.95866V5.95866Z" fill="white"/>
</svg>
