<svg width="72" height="72" viewBox="0 0 72 72" fill="none" xmlns="http://www.w3.org/2000/svg">
<g filter="url(#filter0_d_37_1531)">
<path d="M36 18C26.0589 18 18 26.0589 18 36C18 45.9411 26.0589 54 36 54C45.9411 54 54 45.9411 54 36C54 26.0589 45.9411 18 36 18Z" fill="#6C63FF"/>
<path d="M42.3886 22.8499C37.109 22.8499 32.829 28.7374 32.829 36.0001C32.829 43.2628 37.109 49.1504 42.3886 49.1504C47.6682 49.1504 51.9482 43.2628 51.9482 36.0001C51.9482 28.7374 47.6682 22.8499 42.3886 22.8499Z" fill="white"/>
<path d="M45.5575 29.0173C44.084 29.0173 42.8896 30.8964 42.8896 33.2142C42.8896 35.5321 44.084 37.4111 45.5575 37.4111C47.031 37.4111 48.2255 35.5321 48.2255 33.2142C48.2255 30.8964 47.031 29.0173 45.5575 29.0173Z" fill="#838383"/>
</g>
<defs>
<filter id="filter0_d_37_1531" x="0" y="0" width="72" height="72" filterUnits="userSpaceOnUse" color-interpolation-filters="sRGB">
<feFlood flood-opacity="0" result="BackgroundImageFix"/>
<feColorMatrix in="SourceAlpha" type="matrix" values="0 0 0 0 0 0 0 0 0 0 0 0 0 0 0 0 0 0 127 0" result="hardAlpha"/>
<feOffset/>
<feGaussianBlur stdDeviation="9"/>
<feComposite in2="hardAlpha" operator="out"/>
<feColorMatrix type="matrix" values="0 0 0 0 0.192157 0 0 0 0 0.423529 0 0 0 0 0.776471 0 0 0 0.35 0"/>
<feBlend mode="normal" in2="BackgroundImageFix" result="effect1_dropShadow_37_1531"/>
<feBlend mode="normal" in="SourceGraphic" in2="effect1_dropShadow_37_1531" result="shape"/>
</filter>
</defs>
</svg>
